<?xml version="1.0" encoding="UTF-8" standalone="no"?>
<!-- Created with Inkscape (http://www.inkscape.org/) -->

<svg
   xmlns:dc="http://purl.org/dc/elements/1.1/"
   xmlns:cc="http://creativecommons.org/ns#"
   xmlns:rdf="http://www.w3.org/1999/02/22-rdf-syntax-ns#"
   xmlns:svg="http://www.w3.org/2000/svg"
   xmlns="http://www.w3.org/2000/svg"
   xmlns:sodipodi="http://sodipodi.sourceforge.net/DTD/sodipodi-0.dtd"
   xmlns:inkscape="http://www.inkscape.org/namespaces/inkscape"
   id="svg2"
   version="1.1"
   inkscape:version="0.91 r"
   xml:space="preserve"
   width="133.13217"
   height="136.07434"
   viewBox="0 0 133.13217 136.07434"
   sodipodi:docname="logo.svg"><metadata
     id="metadata8"><rdf:RDF><cc:Work
         rdf:about=""><dc:format>image/svg+xml</dc:format><dc:type
           rdf:resource="http://purl.org/dc/dcmitype/StillImage" /><dc:title></dc:title></cc:Work></rdf:RDF></metadata><defs
     id="defs6"><clipPath
       clipPathUnits="userSpaceOnUse"
       id="clipPath16"><path
         d="m 0,159.27 159.27,0 L 159.27,0 0,0 0,159.27 Z"
         id="path18"
         inkscape:connector-curvature="0" /></clipPath></defs><sodipodi:namedview
     pagecolor="#ffffff"
     bordercolor="#666666"
     borderopacity="1"
     objecttolerance="10"
     gridtolerance="10"
     guidetolerance="10"
     inkscape:pageopacity="0"
     inkscape:pageshadow="2"
     inkscape:window-width="1143"
     inkscape:window-height="886"
     id="namedview4"
     showgrid="false"
     inkscape:zoom="1.1854085"
     inkscape:cx="-8.3078266"
     inkscape:cy="52.430715"
     inkscape:window-x="0"
     inkscape:window-y="30"
     inkscape:window-maximized="0"
     inkscape:current-layer="g10"
     fit-margin-top="0"
     fit-margin-left="0"
     fit-margin-right="0"
     fit-margin-bottom="0" /><g
     id="g10"
     inkscape:groupmode="layer"
     inkscape:label="carte de visite KaG carre impression"
     transform="matrix(1.25,0,0,-1.25,-23.492467,184.03097)"><g
       id="g4414"><rect
         ry="9.8855963"
         transform="scale(1,-1)"
         y="-147.22478"
         x="18.793974"
         height="108.85947"
         width="106.50574"
         id="rect4412"
         style="opacity:1;fill:#ffffff;fill-opacity:1;stroke:none;stroke-width:1.39505887;stroke-miterlimit:4;stroke-dasharray:none;stroke-opacity:1" /><g
         transform="matrix(0.77220106,0,0,0.77220106,9.3355651,32.311984)"
         id="g12"><g
           clip-path="url(#clipPath16)"
           id="g14"><g
             transform="translate(98.438,111.3408)"
             id="g20"><path
               inkscape:connector-curvature="0"
               id="path22"
               style="fill:#5f5c5c;fill-opacity:1;fill-rule:evenodd;stroke:none"
               d="m 0,0 c 0.094,0.64 0.047,1.279 0.02,1.919 -0.413,0.217 -0.418,0.615 -0.44,1.001 -0.033,0.608 -0.014,1.219 -0.016,1.828 -0.003,0.256 0.082,0.575 -0.052,0.756 -0.809,1.067 -0.407,2.054 0.084,3.083 0.232,0.491 0.152,1.07 0.16,1.616 0.039,2.92 -0.092,5.838 0.08,8.753 0.023,0.412 -0.15,0.583 -0.469,0.714 -0.248,0.171 -0.568,0.303 -0.795,0.102 -0.789,-0.699 -1.81,-0.811 -2.74,-1.158 -0.18,-0.066 -0.297,-0.232 -0.461,-0.326 C -4.854,18.216 -5.07,18.125 -5.307,18.101 -6.16,17.85 -6.512,17.218 -6.611,16.394 -6.689,15.755 -6.639,15.112 -6.619,14.475 -6.518,11.372 -6.537,8.274 -6.711,5.176 -6.746,4.553 -6.428,4.36 -5.863,4.547 -5.479,4.675 -5.117,4.724 -4.787,4.424 -4.783,4.258 -4.855,4.122 -4.957,3.996 -5.238,3.547 -5.502,3.101 -6.029,2.863 -6.564,2.626 -6.809,2.15 -6.801,1.562 -6.797,1.278 -6.812,0.998 -6.934,0.736 c -0.13,-2.554 -0.111,-5.11 0.211,-7.654 0.051,-0.415 0.094,-0.827 0.108,-1.245 0.008,-0.221 -0.026,-0.49 0.211,-0.603 0.291,-0.137 0.482,0.106 0.652,0.282 1.037,1.05 2.139,2.037 3.088,3.175 0.297,0.362 0.559,0.816 1.156,0.708 0.674,0.434 1.063,1.215 1.852,1.583 C 0.543,-3.467 0.092,-3.579 0.014,-3.846 0.117,-4.2 -0.047,-4.46 -0.27,-4.712 c -2.119,-2.409 -4.3,-4.755 -6.597,-6.996 -0.725,-0.707 -1.649,-0.971 -2.567,-0.829 -1.519,0.232 -2.937,-0.052 -4.353,-0.479 -0.934,-0.281 -1.873,-0.397 -2.844,-0.391 -2.851,0.016 -5.706,-0.01 -8.562,0.016 -0.836,0.007 -1.657,-0.196 -2.49,-0.114 -0.491,-0.022 -1.023,0.188 -1.449,-0.232 -0.72,-0.183 -1.165,0.106 -1.608,0.698 -0.889,1.19 -2.136,1.993 -3.439,2.665 -0.821,0.424 -1.624,0.87 -2.433,1.314 -0.354,0.643 -1.003,0.885 -1.61,1.184 -0.58,0.384 -0.978,0.908 -1.199,1.568 -0.062,0.142 -0.069,0.286 -0.015,0.431 0.344,0.443 0.689,0.337 1.065,0.025 2.013,-1.661 4.24,-2.983 6.545,-4.187 0.639,-0.332 0.873,-0.064 0.862,0.494 -0.05,2.59 0.232,5.185 -0.094,7.773 -0.124,0.988 -0.043,1.985 -0.039,2.983 0.42,1.176 0.055,2.352 0.025,3.53 -0.082,3.233 -0.106,6.471 0.128,9.7 -0.146,1.047 -0.712,1.553 -1.788,1.783 -1.544,0.332 -3.032,0.904 -4.446,1.637 -0.386,0.039 -0.747,0.177 -1.12,0.265 -1.067,0.247 -1.502,-0.033 -1.483,-1.104 0.046,-2.364 -0.224,-4.735 0.141,-7.09 0.03,-0.19 0.022,-0.384 0.026,-0.578 0.012,-0.762 0.013,-1.527 0.008,-2.292 -0.004,-0.803 0.335,-1.324 1.132,-1.546 0.642,-0.181 1.259,-0.451 1.906,-0.615 1.354,-0.341 2.504,-1.195 3.865,-1.519 0.422,-0.022 0.808,-0.153 1.199,-0.304 0.608,-0.239 0.751,-0.553 0.275,-1.056 -1.025,-0.347 -2.032,-0.191 -2.979,0.236 -0.696,0.315 -1.395,0.638 -2.059,1.018 -0.714,0.05 -1.342,0.402 -2.019,0.581 -0.812,0.22 -1.048,0.035 -1.125,-0.798 -0.11,-1.222 0.225,-2.432 0.122,-3.649 -0.086,-1.047 -0.063,-2.072 0.244,-3.084 0.006,-0.155 0.007,-0.309 0.004,-0.466 -0.048,-0.567 0.053,-1.156 -0.35,-1.656 -0.188,-0.233 -0.043,-0.49 0.063,-0.725 0.376,-1.057 0.326,-1.213 -0.507,-1.602 -1.478,0.355 -1.559,0.462 -1.393,1.946 0.169,1.504 0.022,3.015 0.123,4.518 -0.066,0.813 0.29,1.552 0.422,2.331 0.106,0.632 0.161,1.252 0.039,1.883 0.024,3.504 -0.124,7 -0.327,10.497 -0.094,1.598 -0.01,3.208 -0.282,4.798 -0.065,0.379 -0.143,0.757 -0.216,1.136 -0.043,0.222 -0.09,0.441 -0.323,0.559 -0.266,0.138 -0.497,0.303 -0.495,0.648 10e-4,0.423 0.069,0.831 0.265,1.213 0.154,0.3 0.408,0.307 0.654,0.17 0.569,-0.312 1.117,-0.179 1.676,0.013 2.158,0.741 4.283,1.569 6.37,2.488 3.002,1.318 6.093,2.413 9.123,3.657 1.041,0.43 2.09,0.845 3.047,1.44 0.767,0.475 1.656,0.7 2.391,1.238 0.247,0.182 0.478,0.062 0.704,-0.095 0.584,-0.4 1.174,-0.784 1.762,-1.176 0.346,-0.233 0.668,-0.506 1.09,-0.6 0.883,-0.648 1.865,-1.111 2.869,-1.541 2.068,-1.008 4.031,-2.256 6.232,-2.971 2.438,-0.788 4.932,-1.396 7.428,-1.985 0.598,-0.142 0.598,-0.137 0.344,-0.745 -0.125,-0.307 -0.1,-0.632 -0.1,-0.95 C 1.578,18.134 1.6,15.917 1.613,13.704 1.891,12.416 1.672,11.13 1.611,9.845 1.354,6.363 1.213,2.879 1.178,-0.608 1.172,-1.087 1.236,-1.566 1.281,-2.044 1.334,-2.656 1.174,-2.786 0.584,-2.614 -0.104,-2.411 -0.121,-2.38 -0.133,-1.187 0.051,-0.807 -0.145,-0.385 0,0" /></g><g
             transform="translate(97.9087,131.9453)"
             id="g24"><path
               inkscape:connector-curvature="0"
               id="path26"
               style="fill:#d7d6d7;fill-opacity:1;fill-rule:evenodd;stroke:none"
               d="M 0,0 C 0.275,0.13 0.51,0.272 0.594,-0.228 0.734,-1.06 0.756,-1.89 0.756,-2.721 0.75,-5.48 0.742,-8.239 0.732,-10.998 0.73,-11.351 0.697,-11.702 0.678,-12.054 c -0.024,-0.463 -0.119,-0.879 -0.532,-1.179 -0.197,-0.15 -0.371,-0.363 -0.279,-0.66 0.264,-0.184 0.36,0.22 0.682,0.131 l 0,-4.924 c -0.184,-0.705 -0.365,-1.407 -0.543,-2.114 -0.055,-0.216 -0.092,-0.435 -0.26,-0.597 -0.367,-0.35 -0.791,-0.249 -0.92,0.248 -0.094,0.365 -0.142,0.745 -0.183,1.122 -0.036,0.332 -0.1,0.63 -0.422,0.796 -0.037,0.331 0.183,0.419 0.437,0.518 0.656,0.254 0.746,0.795 0.602,1.388 -0.381,1.567 -0.268,3.184 -0.514,4.762 0.121,0.651 0.225,1.301 0.037,1.958 -0.017,0.089 -0.033,0.181 -0.041,0.274 -0.066,0.292 0.041,0.681 -0.355,0.803 -0.366,0.109 -0.551,-0.235 -0.774,-0.422 -0.416,-0.346 -0.592,-0.844 -0.717,-1.36 -0.099,-0.121 -0.222,-0.194 -0.378,-0.217 -0.104,-0.004 -0.198,0.023 -0.289,0.073 -0.247,0.243 -0.301,0.618 -0.571,0.844 -0.678,0.622 -0.781,1.445 -0.689,2.273 0.121,1.083 0.06,2.152 0.004,3.233 0.732,0.985 0.953,2.21 1.541,3.259 0.129,0.224 0.351,0.319 0.57,0.28 C -1.521,-1.817 -0.59,-1.229 0,0" /></g><g
             transform="translate(98.7817,108.3232)"
             id="g28"><path
               inkscape:connector-curvature="0"
               id="path30"
               style="fill:#f7f7f7;fill-opacity:1;fill-rule:evenodd;stroke:none"
               d="m 0,0 c -0.5,-0.748 -2.945,-3 -3.584,-3.627 -1.025,-1.01 -2.062,-2.011 -3.096,-3.014 -0.179,-0.173 -0.349,-0.367 -0.681,-0.382 -0.127,3.243 -0.67,6.439 -0.332,9.669 0.041,0.379 -0.049,0.769 0.07,1.145 0.361,0.541 0.672,0.344 0.93,-0.084 0.113,-0.188 0.095,-0.434 0.162,-0.645 0.252,-0.806 0.47,-0.867 1.142,-0.321 0.075,0.06 -0.009,4.271 0.088,4.273 0.125,0.017 5.516,2.868 3.237,-1.694 1.177,0.242 1.214,1.499 1.753,0.388 C 0.213,4.633 0.025,1.206 0,0" /></g><g
             transform="translate(93.272,126.7842)"
             id="g32"><path
               inkscape:connector-curvature="0"
               id="path34"
               style="fill:#d0cfcf;fill-opacity:1;fill-rule:evenodd;stroke:none"
               d="M 0,0 C 0.203,-0.912 0.213,-1.815 0.129,-2.756 0.053,-3.602 0.035,-4.54 0.766,-5.231 0.486,-5.663 0.869,-6.053 0.848,-6.474 0.887,-7.353 0.857,-8.231 0.865,-9.111 0.836,-9.446 0.937,-9.825 0.557,-10.043 c -0.213,-0.298 0.214,-0.416 0.314,-0.768 -0.685,-0.105 -1.713,-0.772 -2.359,-0.967 -0.492,-0.149 -0.578,-0.094 -0.617,0.395 -0.01,0.128 -0.01,0.26 0.003,0.386 0.178,1.438 0,2.894 0.172,4.324 0.2,1.646 -0.05,3.271 -0.052,4.904 0,0.867 0.007,1.733 0.013,2.599 0.008,1.205 0.533,2.016 1.76,2.279 C 0.422,2.695 0.404,2.123 0.301,1.446 0.225,0.956 0.203,0.464 0,0" /></g><g
             transform="translate(93.6587,111.1494)"
             id="g36"><path
               inkscape:connector-curvature="0"
               id="path38"
               style="fill:#d3d2d2;fill-opacity:1;fill-rule:evenodd;stroke:none"
               d="m 0,0 c -0.01,-0.191 -0.01,-0.385 -0.035,-0.574 -0.055,-0.364 -0.162,-0.719 -0.582,-0.789 -0.406,-0.068 -0.651,0.214 -0.858,0.51 -0.283,0.402 -0.431,0.857 -0.472,1.347 -0.03,0.331 -0.16,0.56 -0.553,0.471 -0.242,1.406 0.15,2.444 1.633,2.883 0.242,0.068 0.459,0.224 0.689,0.339 C -0.24,2.787 0.117,1.405 0,0" /></g><g
             transform="translate(93.8716,120.6035)"
             id="g40"><path
               inkscape:connector-curvature="0"
               id="path42"
               style="fill:#605d5e;fill-opacity:1;fill-rule:evenodd;stroke:none"
               d="M 0,0 C -0.059,0.176 -0.131,0.348 -0.172,0.525 -0.234,0.796 -0.111,0.938 0.166,0.949 0.203,0.634 0.418,0.354 0.371,0.015 0.77,-0.265 1.039,-0.613 1.006,-1.13 c 0.008,-0.11 0.012,-0.221 0.012,-0.331 0.05,-1.514 -0.497,-3.022 -0.059,-4.55 0.08,-0.271 0.045,-0.573 0.225,-0.81 0.55,-0.353 0.904,0.134 1.328,0.308 0.361,0.256 0.275,0.649 0.232,0.972 -0.211,1.518 -0.39,3.037 -0.353,4.571 0.007,0.296 -0.006,0.591 0.047,0.883 0.027,0.263 0.021,0.53 0.126,0.779 0.116,0.205 0.243,0.383 0.518,0.305 L 3.078,0.983 C 3.215,0.253 3.203,-0.476 3.086,-1.206 3.27,-3.143 3.371,-5.09 3.766,-6.999 3.832,-7.327 3.766,-7.485 3.443,-7.542 3.035,-7.614 2.621,-7.666 2.258,-7.89 1.75,-8.124 1.24,-8.362 0.729,-8.591 0.531,-8.68 0.316,-8.767 0.156,-8.516 c -0.224,1.29 0.055,2.594 -0.146,3.886 -0.02,0.257 -0.039,0.512 -0.053,0.768 0.018,0.325 0.039,0.65 0.057,0.976 C 0.107,-1.924 0.127,-0.962 0,0" /></g><g
             transform="translate(93.8813,115.9736)"
             id="g44"><path
               inkscape:connector-curvature="0"
               id="path46"
               style="fill:#7c7a7a;fill-opacity:1;fill-rule:evenodd;stroke:none"
               d="M 0,0 C 0.301,-0.866 0.105,-1.764 0.156,-2.648 0.178,-3.059 0.15,-3.472 0.146,-3.886 -0.152,-3.149 0.008,-2.378 -0.027,-1.622 -0.055,-1.081 -0.012,-0.54 0,0" /></g><g
             transform="translate(98.438,111.3408)"
             id="g48"><path
               inkscape:connector-curvature="0"
               id="path50"
               style="fill:#d7d6d7;fill-opacity:1;fill-rule:evenodd;stroke:none"
               d="M 0,0 C 0.047,-0.408 0.07,-0.811 -0.133,-1.187 -0.166,-0.782 -0.18,-0.381 0,0" /></g><g
             transform="translate(86.7075,99.9561)"
             id="g52"><path
               inkscape:connector-curvature="0"
               id="path54"
               style="fill:#f6f6f6;fill-opacity:1;fill-rule:evenodd;stroke:none"
               d="m 0,0 c -1.037,-0.307 -2.076,-0.624 -3.119,-0.914 -0.432,-0.119 -0.877,-0.106 -1.328,-0.119 -1.813,-0.053 -3.631,0.112 -5.449,-0.03 -0.729,-0.059 -1.473,-0.068 -2.201,-0.005 -1.026,0.089 -2.036,0.08 -3.052,-0.1 -0.276,-0.049 -0.571,0.005 -0.857,0.012 -0.515,0.23 -0.663,0.617 -0.554,1.164 0.098,0.497 0.217,1.015 0.135,1.512 -0.227,1.371 0.295,2.414 1.296,3.283 1.069,1.019 1.314,1.07 2.537,0.536 0.352,-0.139 0.634,-0.462 1.06,-0.424 0.486,-0.339 1.019,-0.257 1.545,-0.156 0.488,0.096 0.933,0.257 1.444,-0.07 0.413,-0.262 0.725,0.227 1.074,0.404 0.081,0.028 0.16,0.057 0.238,0.087 0.368,0.038 0.7,0.198 1.049,0.301 0.075,0.039 0.143,0.074 0.215,0.11 0.354,0.356 0.764,0.18 1.16,0.123 0.077,0.016 0.155,0.029 0.233,0.049 0.32,0.087 0.59,0.268 0.863,0.442 0.16,0.113 0.268,0.241 0.285,0.463 0.045,0.479 0.354,0.633 0.719,0.353 C -2.268,6.683 -1.758,6.698 -1.27,6.585 -0.918,6.408 -0.928,5.897 -0.514,5.779 0.082,5.708 0.725,6.118 1.262,5.728 1.902,5.266 1.381,4.598 1.426,4.024 1.475,3.302 1.824,2.64 1.689,1.858 1.436,0.396 1.381,0.269 0,0" /></g><g
             transform="translate(74.1602,104.9766)"
             id="g56"><path
               inkscape:connector-curvature="0"
               id="path58"
               style="fill:#eeeeee;fill-opacity:1;fill-rule:evenodd;stroke:none"
               d="m 0,0 c -0.062,0.015 -0.127,0.022 -0.187,0.045 -0.857,0.323 -1.544,0.092 -2.084,-0.632 -0.038,0.031 -0.075,0.064 -0.113,0.095 -0.004,0.626 -0.355,1.215 -0.211,1.857 0.006,0.781 -0.014,1.564 0.262,2.315 0.439,0.476 -0.009,0.778 -0.225,1.124 -0.027,0.268 -0.044,0.536 0.096,0.784 0.094,0.224 0.317,0.419 0.161,0.7 -0.705,1.056 -0.502,1.552 0.722,1.83 0.28,0.064 0.557,0.085 0.841,0.083 C 1.398,8.277 3.546,8.281 5.661,8.142 7.838,7.997 9.958,8.417 12.11,8.386 12.413,8.356 12.69,8.272 12.686,7.902 12.682,7.444 12.241,7.433 11.967,7.249 11.42,6.471 11.811,5.655 11.805,4.852 11.922,4.733 12.022,4.896 11.92,4.818 11.899,4.801 11.889,4.833 11.85,4.885 c -0.353,0.481 -0.035,0.979 -0.049,1.47 0.094,0.347 0.104,0.756 0.569,0.853 0.158,0.021 0.318,0.026 0.476,0.027 0.446,0.064 0.703,-0.173 0.924,-0.529 0.664,-1.078 1.457,-2.091 1.703,-3.381 0.02,-0.09 0.098,-0.163 0.156,-0.238 0.184,-1.592 0.19,-3.179 -0.068,-4.765 -0.076,-0.468 -0.094,-0.951 -0.103,-1.429 -0.014,-0.613 0.033,-1.219 0.578,-1.687 -0.317,-0.352 -0.612,-0.569 -1.026,-0.423 -0.804,0.284 -1.636,0.194 -2.463,0.196 1.028,0.563 1.442,1.454 1.164,2.649 -0.183,0.778 -0.476,1.512 -0.109,2.337 0.174,0.396 -0.15,0.63 -0.635,0.464 -0.465,-0.158 -0.904,-0.368 -1.351,0.02 0.127,0.117 0.207,0.273 0.109,0.417 C 11.286,1.511 11.286,2.326 10.879,2.97 10.504,2.954 10.649,2.645 10.61,2.47 10.512,2.051 10.297,1.838 9.874,2.014 9.053,2.352 9.081,1.946 9.229,1.345 9.292,1.086 9.387,0.77 9.053,0.578 8.598,0.615 8.338,0.34 8.114,0.001 7.995,0.113 7.92,0.245 7.928,0.415 7.909,0.262 7.854,0.125 7.749,0.011 7.409,0.237 7.073,0.561 6.725,0.02 6.329,0.469 6.502,1.062 6.334,1.569 6.272,1.761 6.352,2.077 6.108,2.113 5.787,2.16 5.746,1.825 5.662,1.596 5.452,1.032 5.558,0.399 5.288,-0.151 4.802,-0.536 4.128,-0.687 3.853,-1.333 3.815,-1.418 3.693,-1.435 3.602,-1.39 3.509,-1.345 3.497,-1.252 3.484,-1.155 3.392,-0.409 3.364,-0.373 2.664,-0.644 2.014,-0.896 1.398,-1.162 0.935,-0.364 0.825,-0.041 1.156,0.022 1.207,0.155 1.013,0.017 0.709,-0.247 0.415,0.039 -0.023,0.464 0.09,1.021 0.18,1.49 -0.137,1.075 0.419,0.471 0,0" /></g><g
             transform="translate(58.9014,107.3496)"
             id="g60"><path
               inkscape:connector-curvature="0"
               id="path62"
               style="fill:#f3f2f3;fill-opacity:1;fill-rule:evenodd;stroke:none"
               d="M 0,0 0,0.276 C -0.046,1.394 0.08,2.486 0.65,3.472 1.147,4.333 1.571,5.202 1.728,6.208 1.887,7.23 2.503,7.732 3.305,7.657 3.881,7.559 4.41,7.31 4.896,7.019 5.755,6.498 6.652,6.251 7.651,6.366 7.807,6.385 7.97,6.333 8.129,6.314 8.752,6.655 9.106,6.576 9.003,5.76 8.969,5.488 9.068,5.202 8.917,4.941 9.099,0.82 9.144,-3.301 8.971,-7.41 8.644,-7.515 8.445,-7.378 8.309,-7.224 7.496,-6.306 6.396,-5.841 5.339,-5.316 4.703,-4.999 4.095,-4.642 3.54,-4.212 2.556,-3.449 1.426,-2.875 0.572,-1.937 0.482,-1.84 0.331,-1.91 0.221,-1.983 -0.383,-1.383 0.024,-0.666 0,0" /></g><g
             transform="translate(89.7915,129.0771)"
             id="g64"><path
               inkscape:connector-curvature="0"
               id="path66"
               style="fill:#e2e1e2;fill-opacity:1;fill-rule:evenodd;stroke:none"
               d="m 0,0 c -0.008,-0.447 -0.014,-0.895 -0.02,-1.342 -0.121,-1.793 -0.105,-3.587 -0.009,-5.383 0.004,-0.068 0.008,-0.138 0.009,-0.208 -0.121,-0.199 -0.128,-0.408 -0.125,-0.642 0.004,-0.277 -0.017,-0.603 -0.378,-0.7 -0.385,-0.107 -0.596,0.139 -0.791,0.412 -0.075,0.102 -0.219,0.226 -0.184,0.325 0.393,1.083 -0.707,1.684 -0.816,2.605 -0.049,0.4 -0.364,0.512 -0.702,0.525 -0.363,0.012 -0.48,-0.244 -0.523,-0.566 -0.17,-1.188 -0.225,-1.239 -1.588,-1.58 -0.318,0.091 -0.414,0.349 -0.518,0.632 -0.334,0.917 -0.597,1.081 -1.607,0.797 -1.641,-0.457 -3.336,-0.627 -4.984,-1.037 -0.502,-0.127 -1.038,-0.277 -1.518,-0.204 -0.655,0.097 -0.922,-0.336 -1.316,-0.631 -0.42,-0.006 -0.834,-0.136 -1.257,-0.064 -0.493,0.208 -0.833,0.626 -1.26,0.925 -0.377,0.573 0.038,1.023 0.272,1.471 0.451,0.865 0.886,1.646 -0.006,2.565 -0.435,0.45 0.003,0.782 0.533,0.864 1.765,0.277 3.547,0.409 5.323,0.558 1.959,0.166 3.881,0.58 5.842,0.727 1.115,0.084 2.215,0.263 3.32,0.475 C -1.598,0.658 -0.695,0.49 0,0" /></g><g
             transform="translate(59.0039,132.4043)"
             id="g68"><path
               inkscape:connector-curvature="0"
               id="path70"
               style="fill:#d5d4d4;fill-opacity:1;fill-rule:evenodd;stroke:none"
               d="M 0,0 C 6.445,2.824 12.996,5.015 19.247,7.966 19.41,7.757 19.197,7.637 19.089,7.515 18.857,7.248 18.616,6.988 18.356,6.748 16.241,4.803 14.504,2.538 12.816,0.228 12.08,-0.781 11.26,-1.734 10.419,-2.66 9.916,-3.214 9.2,-3.156 8.533,-3.005 8.228,-2.935 7.946,-2.747 7.656,-2.61 7.337,-2.462 7.033,-2.246 6.698,-2.166 4.539,-1.665 2.58,-0.521 0.362,-0.21 0.279,-0.2 0.208,-0.123 0,0" /></g><g
             transform="translate(84.7778,122.7275)"
             id="g72"><path
               inkscape:connector-curvature="0"
               id="path74"
               style="fill:#d9d8d8;fill-opacity:1;fill-rule:evenodd;stroke:none"
               d="M 0,0 C 0.02,0.061 0.049,0.122 0.053,0.184 0.07,0.745 1.299,0.342 0.893,1.26 0.646,1.813 1.389,2.24 0.936,2.944 1.803,2.555 2.488,2.42 3.154,2.214 3.369,2.146 3.576,2.026 3.66,1.805 3.75,1.581 3.563,1.465 3.416,1.341 3.166,1.122 3.285,0.956 3.506,0.813 3.666,0.712 3.846,0.632 3.99,0.509 4.311,0.239 4.502,-0.076 4.182,-0.478 4.014,-0.687 3.883,-0.902 4.035,-1.171 c 0.094,-0.166 0.184,-0.382 0.404,-0.362 0.266,0.023 0.245,0.254 0.209,0.446 -0.054,0.29 0.149,0.393 0.346,0.504 0.07,-1.021 0.068,-2.044 -0.029,-3.064 -0.123,-1.309 -0.096,-2.612 -0.037,-3.925 0.101,-2.362 0.16,-4.728 0.084,-7.092 -0.576,0.338 -0.815,0.933 -1.127,1.476 -0.485,0.84 -0.94,1.703 -1.615,2.415 -0.383,0.492 -1.131,0.002 -1.493,0.549 0.233,0.191 0.549,0.141 0.797,0.261 0.25,0.121 0.076,0.242 -0.058,0.335 0.099,0.677 0.689,0.163 0.884,0.385 -0.375,0.11 -0.912,-0.298 -1.306,0.23 -0.819,1.735 -1.207,3.577 -1.295,5.469 -0.037,0.888 -0.082,1.785 -0.094,2.68 C -0.299,-0.494 -0.32,-0.216 0,0" /></g><g
             transform="translate(88.645,130.4424)"
             id="g76"><path
               inkscape:connector-curvature="0"
               id="path78"
               style="fill:#cbcaca;fill-opacity:1;fill-rule:evenodd;stroke:none"
               d="m 0,0 c -0.008,-0.037 -0.016,-0.073 -0.023,-0.11 -0.289,-0.4 -0.707,-0.534 -1.17,-0.522 -2.969,0.081 -5.924,-0.151 -8.864,-0.477 -1.475,-0.161 -2.925,-0.148 -4.382,0.053 -0.588,0.118 -1.177,0.207 -1.78,0.215 -0.353,0.005 -0.692,0.113 -0.822,0.518 -0.129,0.399 0.124,0.631 0.371,0.865 0.263,0.252 0.605,0.431 0.724,0.811 0.092,0.602 0.324,1.164 0.472,1.751 0.213,0.368 0.451,0.713 0.807,0.959 0.094,-0.012 0.209,-0.081 0.278,-0.05 1.205,0.526 2.409,0.193 3.608,0.002 1.239,-0.198 2.468,0.073 3.697,0.007 0.16,-0.007 0.379,0.024 0.461,-0.085 0.59,-0.771 1.644,-0.546 2.324,-1.115 0.211,-0.177 0.469,-0.224 0.723,-0.13 0.728,0.276 1.41,0.007 2.101,-0.16 C -0.941,2.189 -0.389,1.872 0.016,1.363 -0.141,0.911 0.309,0.451 0,0" /></g><g
             transform="translate(87.1704,132.9746)"
             id="g80"><path
               inkscape:connector-curvature="0"
               id="path82"
               style="fill:#d9d8d8;fill-opacity:1;fill-rule:evenodd;stroke:none"
               d="m 0,0 c -0.25,-0.054 -0.506,-0.165 -0.754,-0.149 -0.467,0.03 -0.851,-0.079 -1.266,-0.307 -0.574,-0.318 -0.757,-0.247 -1.168,0.309 -0.21,0.283 -0.416,0.334 -0.736,0.253 C -4.352,-0.002 -4.795,-0.016 -4.947,0.521 -5.119,1.138 -5.652,1.054 -5.936,0.875 -6.518,0.501 -6.881,0.701 -7.264,1.207 -7.712,0.603 -8.23,0.426 -8.853,0.819 -8.994,0.909 -9.162,1.013 -9.267,0.828 -9.56,0.309 -9.836,0.619 -10.121,0.821 c -0.208,0.151 -0.412,0.306 -0.624,0.451 -0.298,0.206 -0.553,0.277 -0.786,-0.134 -0.289,-0.505 -0.81,-0.202 -1.217,-0.239 -0.366,-0.033 -0.399,0.344 -0.445,0.632 0.527,0.927 1.225,1.728 1.951,2.491 1.126,1.181 2.3,2.317 3.453,3.471 0.195,0.196 0.398,0.37 0.62,0.038 C -5.586,5.159 -3.416,3.336 -1.396,1.374 -1.326,1.31 -1.285,1.218 -1.229,1.141 -1.021,0.628 -0.525,0.44 -0.105,0.168 -0.07,0.112 -0.037,0.056 0,0" /></g><g
             transform="translate(61.4531,129.4873)"
             id="g84"><path
               inkscape:connector-curvature="0"
               id="path86"
               style="fill:#dbdada;fill-opacity:1;fill-rule:evenodd;stroke:none"
               d="M 0,0 C 0.806,-0.187 1.503,-0.646 2.299,-0.886 3.243,-1.167 4.181,-1.454 5.152,-1.627 5.184,-1.632 5.213,-1.639 5.245,-1.646 6.399,-1.932 6.406,-1.94 6.397,-3.109 6.396,-3.236 6.382,-3.363 6.376,-3.489 6.068,-3.808 5.77,-4.119 5.255,-4.066 4.84,-4.024 4.702,-4.417 4.459,-4.648 4.211,-4.888 3.904,-5.049 3.586,-5.185 3.49,-5.207 3.396,-5.201 3.301,-5.187 1.333,-4.934 1.296,-4.977 1.143,-6.966 1.074,-7.857 0.911,-8.741 0.944,-9.643 0.493,-9.802 0.89,-9.951 0.955,-10.101 c 0.065,-0.404 -0.002,-0.806 0.005,-1.211 -0.054,-0.206 -0.057,-0.406 0.046,-0.602 -0.091,-0.645 0.145,-1.405 -0.638,-1.806 -1.017,0.175 -1.931,0.685 -2.939,0.897 -0.429,0.09 -0.528,0.397 -0.528,0.79 0,1.028 -0.015,2.054 -0.026,3.082 -0.133,0.375 -0.052,0.763 -0.071,1.146 -0.032,0.67 0.315,0.975 0.959,1.08 1.151,0.185 1.261,0.326 1.216,1.505 -0.028,0.758 0.024,1.408 0.942,1.635 0.563,0.141 0.535,0.749 0.751,1.159 0.348,0.662 -0.232,0.717 -0.597,0.935 -0.313,0.183 -0.516,0.507 -0.638,0.824 C -0.749,-0.191 -0.671,0.187 0,0" /></g><g
             transform="translate(68.9355,109.0254)"
             id="g88"><path
               inkscape:connector-curvature="0"
               id="path90"
               style="fill:#d0cfcf;fill-opacity:1;fill-rule:evenodd;stroke:none"
               d="m 0,0 c -0.229,0.526 -0.037,1.078 -0.093,1.62 -0.261,2.556 -0.48,5.136 -0.335,7.69 0.16,2.803 -0.343,5.667 0.624,8.413 0.051,0.145 0.062,0.304 -0.094,0.483 -0.335,-0.259 -0.28,-0.718 -0.592,-1.027 -0.171,0.557 -0.084,1.006 0.326,1.386 C 0.886,18.719 1.93,18.948 3,18.766 3.474,18.359 3.668,17.81 3.786,17.222 3.787,17.124 3.782,17.024 3.773,16.926 3.788,15.89 3.327,15.059 2.845,14.151 2.344,13.208 1.861,12.194 2.191,10.88 2.397,10.061 2.249,8.854 1.591,7.979 1.513,7.878 1.464,7.752 1.384,7.657 -0.027,5.976 1.187,5.265 2.602,4.848 2.757,4.804 2.92,4.814 3.08,4.804 3.318,4.808 3.556,4.814 3.723,4.598 3.915,4.081 3.602,3.995 3.194,3.959 2.772,3.922 2.369,4.077 1.952,4.055 2.072,4.053 2.192,4.04 2.308,3.998 2.799,3.327 2.045,3.053 1.864,2.595 1.739,2.438 1.517,2.351 1.497,2.109 1.496,1.928 1.621,1.784 1.648,1.607 1.591,0.854 1.928,0.104 1.663,-0.653 0.838,-1.127 0.427,-0.541 0,0" /></g><g
             transform="translate(62.0137,118.0811)"
             id="g92"><path
               inkscape:connector-curvature="0"
               id="path94"
               style="fill:#efeeef;fill-opacity:1;fill-rule:evenodd;stroke:none"
               d="M 0,0 C -0.003,0.472 -0.003,0.94 0.188,1.384 0.085,1.492 0.081,1.604 0.177,1.717 0.024,2.148 -0.032,2.598 0.014,3.045 0.116,4.033 0.191,5.021 0.227,6.013 0.257,6.859 0.714,7.155 1.508,6.968 2.037,6.844 2.563,6.706 3.089,6.574 3.441,6.529 3.666,6.365 3.65,5.976 3.643,5.946 3.64,5.909 3.62,5.886 3.467,5.707 3.466,5.68 3.625,5.653 3.918,5.603 4.089,5.437 4.093,5.137 4.121,3.2 3.845,1.286 3.619,-0.631 3.558,-1.15 3.323,-1.407 2.782,-1.139 2.612,-1.057 2.421,-1.04 2.246,-1.025 1.015,-0.938 0.992,-0.946 0.976,0.255 0.965,1.193 0.894,2.141 1.055,2.919 0.945,1.895 0.911,0.72 1.055,-0.466 1.116,-0.969 1.249,-1.2 1.798,-1.069 2.041,-1.011 2.311,-1.021 2.575,-1.079 3.569,-1.298 3.583,-1.291 3.667,-0.23 3.728,0.533 3.845,1.288 3.952,2.046 3.997,2.356 4.028,2.629 4.438,2.603 5.238,1.883 5.119,0.855 5.263,-0.06 5.4,-0.939 5.331,-1.847 5.386,-2.743 5.451,-3.81 5.283,-3.944 4.189,-3.936 c -0.254,0 -0.514,-0.046 -0.759,0.065 -0.4,0.009 -0.724,0.223 -1.041,0.421 -0.807,0.507 -1.711,0.781 -2.581,1.137 0.068,0.298 0.126,0.597 0.088,0.908 -0.038,0.324 0.063,0.602 0.307,0.825 C 0.16,-0.377 -0.061,-0.235 0,0" /></g><g
             transform="translate(92.686,131.251)"
             id="g96"><path
               inkscape:connector-curvature="0"
               id="path98"
               style="fill:#d3d2d3;fill-opacity:1;fill-rule:evenodd;stroke:none"
               d="m 0,0 c -0.211,-0.073 -0.428,-0.138 -0.635,-0.224 -0.978,-0.406 -1.722,-0.178 -2.478,0.609 -1.106,1.151 -2.367,2.154 -3.541,3.247 -1.34,1.244 -2.664,2.502 -3.971,3.777 -0.59,0.579 -1.107,1.225 -1.332,2.137 0.65,-0.426 1.297,-0.848 1.943,-1.274 0.633,-0.832 1.668,-1.001 2.502,-1.5 1.119,-0.669 2.28,-1.272 3.319,-2.073 0.984,-0.757 2.197,-0.975 3.32,-1.395 0.285,-0.107 0.582,0.052 0.869,0.115 C 0.951,3.354 1.785,2.873 2.693,2.646 2.908,2.252 2.604,1.937 2.367,1.871 1.295,1.581 0.883,0.5 0,0" /></g><g
             transform="translate(61.4531,129.4873)"
             id="g100"><path
               inkscape:connector-curvature="0"
               id="path102"
               style="fill:#d0cfd0;fill-opacity:1;fill-rule:evenodd;stroke:none"
               d="m 0,0 c -0.269,-0.127 -0.286,-0.312 -0.131,-0.544 0.26,-0.39 0.613,-0.643 1.062,-0.779 0.385,-0.12 0.764,-0.263 1.286,-0.444 C 1.25,-2.17 0.875,-2.842 0.875,-3.76 c 0,-0.449 -0.347,-0.44 -0.692,-0.449 -0.686,-0.014 -0.756,-0.105 -0.714,-0.79 0.011,-0.193 0.043,-0.385 0.083,-0.57 0.202,-0.929 -0.597,-1.862 -1.531,-1.787 -0.953,0.08 -1.057,-0.006 -1.115,-0.921 -0.014,-0.223 -0.02,-0.45 -0.031,-0.674 -0.27,0.875 -0.136,1.776 -0.163,2.663 -0.057,1.821 -0.037,3.644 -0.045,5.468 -10e-4,0.257 0.006,0.513 0.04,0.766 0.109,0.846 0.289,0.97 1.116,0.75 C -1.44,0.502 -0.66,0.436 0,0" /></g><g
             transform="translate(65.4434,114.21)"
             id="g104"><path
               inkscape:connector-curvature="0"
               id="path106"
               style="fill:#d1d0d0;fill-opacity:1;fill-rule:evenodd;stroke:none"
               d="M 0,0 C 0.097,0.006 0.192,0.017 0.288,0.021 1.521,0.066 1.537,0.073 1.481,1.271 1.4,2.993 1.375,4.727 0.835,6.392 0.396,7.072 0.576,7.847 0.594,8.565 0.607,9.146 0.512,9.572 0.038,9.9 c -0.125,0.183 -0.252,0.365 -0.379,0.545 0.306,0.243 0.506,0.526 0.552,0.94 0.039,0.363 0.308,0.584 0.672,0.456 0.448,-0.158 0.846,-0.089 1.262,0.077 0.054,0.02 0.159,-0.085 0.241,-0.13 C 2.596,11.161 2.517,10.51 2.484,9.877 2.319,6.578 2.31,3.277 2.528,-0.021 2.57,-0.656 2.635,-1.303 2.375,-1.919 2.364,-1.701 2.354,-1.484 2.343,-1.268 2.312,-0.622 2.312,-0.622 1.587,-0.546 1.705,-0.39 1.864,-0.222 1.498,-0.184 0.997,-0.135 0.474,-0.271 0,0" /></g><g
             transform="translate(72.0566,127.5078)"
             id="g108"><path
               inkscape:connector-curvature="0"
               id="path110"
               style="fill:#676465;fill-opacity:1;fill-rule:evenodd;stroke:none"
               d="m 0,0 c -1.095,0.027 -2.19,0.054 -3.285,0.083 0.113,0.042 0.222,0.109 0.338,0.128 0.514,0.081 0.199,0.276 0.068,0.448 0.306,0.101 0.55,0.285 0.921,0.304 3.042,0.145 6.094,0.14 9.118,0.526 1.801,0.082 3.569,0.553 4.985,0.498 C 10.36,1.917 8.2,1.584 6.031,1.303 3.707,1.226 1.381,1.161 -0.941,0.995 -1.484,0.956 -2.085,0.855 -2.509,1.38 c 0.457,0.349 1.068,0.091 1.537,0.39 0.046,0.164 0.175,0.34 0.305,0.34 0.865,0 1.723,0.255 2.59,0.062 0.704,-0.009 1.401,-0.09 2.099,-0.188 1.094,-0.153 2.177,0.085 3.252,0.217 2.801,0.338 5.617,0.392 8.432,0.537 0.287,0.014 0.574,0.057 0.859,0.086 -0.143,-0.46 -0.096,-0.81 0.494,-0.845 0.299,-0.016 0.549,-0.112 0.676,-0.41 C 17.42,1.892 17.028,1.827 16.647,1.779 13.75,1.415 10.842,1.146 7.949,0.764 5.564,0.449 3.16,0.272 0.765,0.035 0.515,-0.085 0.263,-0.157 0,0" /></g><g
             transform="translate(62.2061,115.0068)"
             id="g112"><path
               inkscape:connector-curvature="0"
               id="path114"
               style="fill:#d5d5d5;fill-opacity:1;fill-rule:evenodd;stroke:none"
               d="m 0,0 c -0.395,-0.279 -1.072,-1.248 -1.106,-1.643 -0.064,-0.779 -0.339,-1.478 -0.755,-2.133 -0.707,-1.113 -1.241,-2.293 -1.444,-3.605 -0.289,1.091 -0.199,2.217 -0.254,3.326 -0.071,1.494 -0.058,2.995 -0.166,4.493 -0.051,0.717 0.013,0.788 0.738,0.565 C -1.982,0.698 -0.994,0.34 0,0" /></g><g
             transform="translate(66.8721,129.1123)"
             id="g116"><path
               inkscape:connector-curvature="0"
               id="path118"
               style="fill:#edecec;fill-opacity:1;fill-rule:evenodd;stroke:none"
               d="M 0,0 C 0.409,-0.217 0.818,-0.433 1.286,-0.681 0.864,-1.028 0.437,-1.009 0.009,-0.89 c -1.666,0.455 -3.36,0.828 -4.924,1.607 -1.184,0.589 -2.506,0.766 -3.751,1.179 -0.365,0.12 -0.737,0.218 -1.109,0.311 -0.409,0.101 -0.49,0.352 -0.379,0.722 0.125,0.42 0.313,0.273 0.636,0.184 C -8.347,2.789 -7.14,2.61 -5.964,2.286 -4.908,1.996 -3.935,1.519 -2.925,1.126 -1.999,0.623 -0.977,0.37 0,0" /></g><g
             transform="translate(90.7466,126.2002)"
             id="g120"><path
               inkscape:connector-curvature="0"
               id="path122"
               style="fill:#c8c7c7;fill-opacity:1;fill-rule:evenodd;stroke:none"
               d="m 0,0 c 0.131,-2.528 0.178,-5.049 0.078,-7.586 -0.15,-3.938 -0.295,-7.879 -0.252,-11.823 0.006,-0.679 0.186,-1.332 0.166,-2.006 -0.203,-0.112 -0.258,0.061 -0.336,0.18 -0.082,4.265 -0.246,8.53 -0.205,12.794 0.02,2.336 0.061,4.671 -0.025,7.007 -0.006,0.159 0.025,0.32 0.035,0.481 C -0.164,-0.747 -0.68,-0.037 0,0" /></g><g
             transform="translate(71.8887,104.3896)"
             id="g124"><path
               inkscape:connector-curvature="0"
               id="path126"
               style="fill:#e2e1e1;fill-opacity:1;fill-rule:evenodd;stroke:none"
               d="m 0,0 c -0.17,-0.188 -0.324,-0.397 -0.516,-0.565 -0.527,-0.465 -0.715,-1.058 -0.605,-1.724 0.125,-0.743 -0.007,-1.46 -0.134,-2.177 -0.069,-0.388 -0.105,-0.757 0.068,-1.124 -1.488,0.054 -1.281,0.05 -1.307,1.339 -0.021,0.957 -0.046,1.915 -0.069,2.87 0.085,0.758 -0.324,1.604 0.417,2.239 0.18,0.072 0.385,0.019 0.561,0.089 1.251,0.509 1.386,0.434 1.505,-0.873 C -0.052,0.051 -0.025,0.026 0,0" /></g><g
             transform="translate(69.9902,104.9658)"
             id="g128"><path
               inkscape:connector-curvature="0"
               id="path130"
               style="fill:#d8d7d7;fill-opacity:1;fill-rule:evenodd;stroke:none"
               d="m 0,0 c -0.402,-0.229 -0.546,-0.601 -0.53,-1.036 0.01,-0.318 0.019,-0.629 -0.135,-0.921 -0.114,0.236 -0.144,0.488 -0.154,0.748 C -0.896,0.546 -0.977,2.303 -1.055,4.06 -0.518,3.896 0.034,3.77 0.529,3.491 0.641,3.646 0.642,3.85 0.735,4.007 0.929,4.34 1.115,4.818 1.593,4.623 2.036,4.44 2.527,4.146 2.246,3.482 2.125,2.759 1.812,2.072 1.842,1.32 1.748,1.294 1.626,1.284 1.575,1.354 1.029,2.097 0.905,1.603 0.735,1.094 0.593,0.669 0.612,0.116 0,0" /></g><g
             transform="translate(69.5479,128.8877)"
             id="g132"><path
               inkscape:connector-curvature="0"
               id="path134"
               style="fill:#eae9e9;fill-opacity:1;fill-rule:evenodd;stroke:none"
               d="M 0,0 C 0.224,0.014 0.449,0.056 0.671,0.037 1.768,-0.04 2.853,0.036 3.925,0.28 4.368,0.383 4.823,0.414 5.267,0.346 6.386,0.174 7.508,0.189 8.632,0.239 8.959,0.354 9.297,0.313 9.627,0.285 9.916,0.263 9.975,0.085 9.827,-0.16 7.143,-0.583 4.435,-0.74 1.725,-0.858 1.022,-0.892 0.323,-0.845 -0.37,-0.721 -0.247,-0.481 -0.123,-0.241 0,0" /></g><g
             transform="translate(92.6821,134.6699)"
             id="g136"><path
               inkscape:connector-curvature="0"
               id="path138"
               style="fill:#eeeeee;fill-opacity:1;fill-rule:evenodd;stroke:none"
               d="m 0,0 c -0.299,-0.47 -0.695,-0.555 -1.244,-0.436 -1.666,0.365 -3.121,1.057 -4.371,2.265 -0.922,0.892 -2.043,1.55 -3.28,1.966 -0.529,0.176 -0.978,0.46 -1.115,1.059 C -7.689,3.488 -5.168,2.516 -2.828,1.186 -1.934,0.68 -0.977,0.312 0,0" /></g><g
             transform="translate(92.686,131.251)"
             id="g140"><path
               inkscape:connector-curvature="0"
               id="path142"
               style="fill:#c5c4c4;fill-opacity:1;fill-rule:evenodd;stroke:none"
               d="M 0,0 C 0.016,0.295 0.08,0.556 0.342,0.74 0.717,1.001 1.008,1.31 0.998,1.815 0.996,2.065 1.217,2.11 1.402,2.122 1.898,2.144 2.303,2.369 2.693,2.646 2.916,2.656 3.125,2.623 3.309,2.491 3.49,2.143 3.873,2.159 4.168,2.018 4.576,1.819 4.838,1.567 4.445,1.117 3.875,0.723 3.205,0.604 2.549,0.467 1.703,0.291 0.869,0.058 0,0" /></g><g
             transform="translate(99.0825,118.665)"
             id="g144"><path
               inkscape:connector-curvature="0"
               id="path146"
               style="fill:#dcdbdb;fill-opacity:1;fill-rule:evenodd;stroke:none"
               d="m 0,0 c -0.152,2.651 0.258,5.299 0.037,7.957 -0.137,1.656 -0.076,3.331 -0.098,4.997 -0.003,0.217 -0.033,0.456 0.266,0.55 0.24,-0.191 0.156,-0.463 0.156,-0.695 C 0.363,9.701 0.617,6.596 0.52,3.487 0.469,1.794 0.307,0.106 0.197,-1.586 -0.107,-1.087 0.217,-0.509 0,0" /></g><g
             transform="translate(97.9087,131.9453)"
             id="g148"><path
               inkscape:connector-curvature="0"
               id="path150"
               style="fill:#cbcaca;fill-opacity:1;fill-rule:evenodd;stroke:none"
               d="m 0,0 c 0.006,-0.062 0.006,-0.125 0.02,-0.187 0.265,-1.155 0.265,-1.153 -0.856,-1.543 -0.18,-0.064 -0.346,-0.157 -0.512,-0.247 -0.541,-0.294 -1.07,-0.384 -1.582,0.06 -0.103,0.091 -0.234,0.086 -0.359,0.037 -0.338,-0.596 -0.668,-0.57 -0.986,0.015 0.464,0.294 1.011,0.37 1.511,0.581 0.43,0.18 0.844,0.286 1.174,0.727 C -1.25,-0.104 -0.543,-0.171 0,0" /></g><g
             transform="translate(73.9795,129.6797)"
             id="g152"><path
               inkscape:connector-curvature="0"
               id="path154"
               style="fill:#e9e9e9;fill-opacity:1;fill-rule:evenodd;stroke:none"
               d="m 0,0 c -0.956,-0.196 -1.922,-0.326 -2.895,-0.402 -0.168,0.009 -0.339,0.021 -0.51,0.032 -0.197,0.14 -0.761,-0.001 -0.422,0.551 0.43,0.457 0.858,0.915 1.288,1.371 0.34,0.128 0.474,0.485 0.749,0.683 0.312,0.229 0.611,0.354 0.816,-0.124 C -1.053,1.668 -1.392,1.411 -1.674,1.11 -1.824,0.951 -2.037,0.792 -1.926,0.537 -1.809,0.27 -1.537,0.213 -1.277,0.227 -0.993,0.24 -0.713,0.317 -0.43,0.346 -0.186,0.371 0.032,0.332 0,0" /></g><g
             transform="translate(68.6348,99.0273)"
             id="g156"><path
               inkscape:connector-curvature="0"
               id="path158"
               style="fill:#c4c3c3;fill-opacity:1;fill-rule:evenodd;stroke:none"
               d="M 0,0 C -0.38,2.456 -0.239,4.923 -0.164,7.389 0.344,6.152 0.488,0.97 0,0" /></g><g
             transform="translate(93.6333,130.0801)"
             id="g160"><path
               inkscape:connector-curvature="0"
               id="path162"
               style="fill:#e9e9e9;fill-opacity:1;fill-rule:evenodd;stroke:none"
               d="M 0,0 C 0.324,-0.177 0.656,-0.179 0.986,-0.015 1.109,-0.218 1.166,-0.457 1.023,-0.641 0.498,-1.335 0.324,-2.187 -0.055,-2.942 -0.121,-3.078 -0.256,-3.181 -0.361,-3.296 -0.332,-2.253 -0.385,-1.215 -0.57,-0.187 -0.428,0.018 -0.203,-0.025 0,0" /></g><g
             transform="translate(60.4863,103.9111)"
             id="g164"><path
               inkscape:connector-curvature="0"
               id="path166"
               style="fill:#f3f2f3;fill-opacity:1;fill-rule:evenodd;stroke:none"
               d="m 0,0 c 0.154,-0.514 -0.021,-0.805 -0.568,-0.86 -0.503,-0.05 -1.008,-0.243 -1.504,0.03 -0.086,0.051 -0.178,0.114 -0.138,0.22 0.053,0.136 0.204,0.133 0.325,0.167 0.241,0.119 0.39,0.281 0.361,0.581 -0.031,0.306 -0.023,0.619 -0.032,0.928 0.043,0.051 0.085,0.067 0.126,0.048 C -1.388,1.099 -1.367,1.082 -1.367,1.063 -0.996,0.599 -0.424,0.396 0,0" /></g><g
             transform="translate(90.4028,104.9648)"
             id="g168"><path
               inkscape:connector-curvature="0"
               id="path170"
               style="fill:#e3e2e2;fill-opacity:1;fill-rule:evenodd;stroke:none"
               d="M 0,0 C 0.111,-0.06 0.223,-0.121 0.336,-0.18 0.4,-0.88 0.475,-1.579 0.52,-2.28 0.557,-2.949 0.506,-3.612 0.244,-4.29 -0.217,-4.097 -0.217,-3.712 -0.234,-3.34 -0.295,-2.215 -0.082,-1.111 0,0" /></g><g
             transform="translate(90.7466,126.2002)"
             id="g172"><path
               inkscape:connector-curvature="0"
               id="path174"
               style="fill:#e6e5e5;fill-opacity:1;fill-rule:evenodd;stroke:none"
               d="m 0,0 c -0.215,-0.298 -0.127,-0.768 -0.539,-0.953 0.002,0.127 0.004,0.252 0.006,0.38 0.178,0.583 -0.045,1.199 0.133,1.783 -0.034,0.508 -0.079,1.016 -0.104,1.524 -0.01,0.212 -0.072,0.468 0.233,0.552 0.185,0.048 0.39,0.11 0.55,-0.013 C 0.467,3.133 0.371,2.919 0.322,2.745 0.059,1.847 0.027,0.924 0,0" /></g><g
             transform="translate(97.1313,132.3682)"
             id="g176"><path
               inkscape:connector-curvature="0"
               id="path178"
               style="fill:#e2e1e2;fill-opacity:1;fill-rule:evenodd;stroke:none"
               d="M 0,0 C -0.098,0.569 -0.58,0.707 -1.008,0.916 -1.193,1.005 -1.488,1.112 -1.137,1.374 -0.244,1.255 0.605,0.976 1.541,0.677 1.117,0.105 0.562,0.044 0,0" /></g><g
             transform="translate(73.0059,131.791)"
             id="g180"><path
               inkscape:connector-curvature="0"
               id="path182"
               style="fill:#d9d8d8;fill-opacity:1;fill-rule:evenodd;stroke:none"
               d="m 0,0 c -0.304,0.114 -0.565,0.022 -0.807,-0.168 -0.225,-0.183 -0.46,-0.351 -0.758,-0.392 0.577,0.772 1.154,1.544 1.73,2.316 C 0.349,1.713 0.542,1.695 0.712,1.617 0.84,1.561 0.874,1.343 0.749,1.314 0.02,1.135 0.275,0.42 0,0" /></g><g
             transform="translate(88.645,130.4424)"
             id="g184"><path
               inkscape:connector-curvature="0"
               id="path186"
               style="fill:#e1e1e1;fill-opacity:1;fill-rule:evenodd;stroke:none"
               d="m 0,0 c -0.213,0.233 -0.346,0.509 -0.418,0.813 -0.09,0.368 0.111,0.506 0.434,0.55 C 0.369,1.028 0.758,0.723 0.982,0.281 0.693,-0.07 0.33,0.034 0,0" /></g><g
             transform="translate(95.106,131.1162)"
             id="g188"><path
               inkscape:connector-curvature="0"
               id="path190"
               style="fill:#adacac;fill-opacity:1;fill-rule:evenodd;stroke:none"
               d="m 0,0 c -0.947,-0.335 -1.896,-0.672 -2.844,-1.004 -0.187,-0.064 -0.422,-0.112 -0.504,0.105 -0.097,0.248 0.157,0.319 0.328,0.371 C -2.037,-0.238 -1.045,-0.01 0,0" /></g><g
             transform="translate(66.8721,129.1123)"
             id="g192"><path
               inkscape:connector-curvature="0"
               id="path194"
               style="fill:#d0d0d0;fill-opacity:1;fill-rule:evenodd;stroke:none"
               d="M 0,0 C -1.065,0.141 -2.132,0.277 -2.925,1.126 -1.848,1.013 -0.882,0.619 0,0" /></g><g
             transform="translate(89.7622,122.3525)"
             id="g196"><path
               inkscape:connector-curvature="0"
               id="path198"
               style="fill:#d9d8d8;fill-opacity:1;fill-rule:evenodd;stroke:none"
               d="m 0,0 c -0.145,0.295 -0.162,0.611 -0.162,0.931 0,1.173 0.004,2.348 0.004,3.524 0.002,0.318 0.021,0.636 0.168,0.928 C 0.008,3.59 0.004,1.796 0,0" /></g><g
             transform="translate(99.0825,118.665)"
             id="g200"><path
               inkscape:connector-curvature="0"
               id="path202"
               style="fill:#e7e6e6;fill-opacity:1;fill-rule:evenodd;stroke:none"
               d="m 0,0 c 0.246,-0.507 0.119,-1.059 0.197,-1.586 l 0,-2.386 C -0.141,-2.647 -0.148,-1.324 0,0" /></g><g
             transform="translate(70.502,97.4648)"
             id="g204"><path
               inkscape:connector-curvature="0"
               id="path206"
               style="fill:#d1d0d1;fill-opacity:1;fill-rule:evenodd;stroke:none"
               d="m 0,0 c -0.551,-0.084 -0.932,0.238 -1.317,0.547 0.388,0.437 0.851,0.365 1.33,0.192 C 0.009,0.493 0.003,0.246 0,0" /></g><g
             transform="translate(59.1191,104.9746)"
             id="g208"><path
               inkscape:connector-curvature="0"
               id="path210"
               style="fill:#d5d5d5;fill-opacity:1;fill-rule:evenodd;stroke:none"
               d="M 0,0 C -0.063,0.002 -0.126,0.002 -0.188,0.003 -0.473,0.789 -0.44,1.581 -0.218,2.372 -0.099,1.719 -0.325,1.023 0.003,0.392 0.002,0.262 0.001,0.131 0,0" /></g><g
             transform="translate(90.5767,130.0039)"
             id="g212"><path
               inkscape:connector-curvature="0"
               id="path214"
               style="fill:#676465;fill-opacity:1;fill-rule:evenodd;stroke:none"
               d="m 0,0 c -0.48,-0.157 -0.971,-0.213 -1.691,-0.227 0.47,0.36 0.849,0.316 1.154,0.457 C -0.404,0.049 -0.082,0.303 0,0" /></g><g
             transform="translate(87.0649,133.1426)"
             id="g216"><path
               inkscape:connector-curvature="0"
               id="path218"
               style="fill:#cbcaca;fill-opacity:1;fill-rule:evenodd;stroke:none"
               d="M 0,0 C -0.621,0.042 -1.041,0.312 -1.123,0.973 -0.695,0.708 -0.295,0.416 0,0" /></g><g
             transform="translate(98.9751,110.9111)"
             id="g220"><path
               inkscape:connector-curvature="0"
               id="path222"
               style="fill:#bbb9ba;fill-opacity:1;fill-rule:evenodd;stroke:none"
               d="M 0,0 C 0.09,-0.456 0.139,-0.911 0.01,-1.568 -0.187,-0.911 -0.066,-0.453 0,0" /></g><g
             transform="translate(90.3462,127.4102)"
             id="g224"><path
               inkscape:connector-curvature="0"
               id="path226"
               style="fill:#c8c7c7;fill-opacity:1;fill-rule:evenodd;stroke:none"
               d="M 0,0 C 0.039,-0.6 0.119,-1.205 -0.133,-1.783 -0.168,-1.185 -0.199,-0.583 0,0" /></g><g
             transform="translate(57.71,129.5439)"
             id="g228"><path
               inkscape:connector-curvature="0"
               id="path230"
               style="fill:#bab8b9;fill-opacity:1;fill-rule:evenodd;stroke:none"
               d="M 0,0 C -0.213,0.303 -0.165,0.526 -0.039,0.843 0.265,0.507 0.11,0.287 0,0" /></g><g
             transform="translate(90.5767,130.0039)"
             id="g232"><path
               inkscape:connector-curvature="0"
               id="path234"
               style="fill:#a09f9f;fill-opacity:1;fill-rule:evenodd;stroke:none"
               d="M 0,0 C -0.197,0.034 -0.404,0.047 -0.541,0.23 -0.348,0.248 -0.145,0.319 0.027,0.271 0.346,0.184 0.123,0.081 0,0" /></g><g
             transform="translate(58.1533,105.1152)"
             id="g236"><path
               inkscape:connector-curvature="0"
               id="path238"
               style="fill:#d1d0d0;fill-opacity:1;fill-rule:evenodd;stroke:none"
               d="M 0,0 C 0.271,-0.299 0.197,-0.503 0.186,-0.729 -0.15,-0.528 0.096,-0.312 0,0" /></g><g
             transform="translate(70.1523,129.8604)"
             id="g240"><path
               inkscape:connector-curvature="0"
               id="path242"
               style="fill:#676465;fill-opacity:1;fill-rule:evenodd;stroke:none"
               d="M 0,0 C -0.112,-0.377 0.217,-0.418 0.422,-0.551 0.086,-0.518 -0.275,-0.502 0,0" /></g><g
             transform="translate(96.5415,113.4932)"
             id="g244"><path
               inkscape:connector-curvature="0"
               id="path246"
               style="fill:#f0f0f0;fill-opacity:1;fill-rule:evenodd;stroke:none"
               d="m 0,0 c -0.594,-0.1 -1.059,-0.489 -1.588,-0.735 -0.346,-0.158 -0.533,-0.066 -0.547,0.325 -0.121,2.056 -0.129,4.113 0.002,6.17 -0.002,0.066 -0.004,0.132 -0.01,0.197 -0.105,0.371 -0.103,0.74 -0.002,1.111 0.081,0.082 0.159,0.163 0.239,0.245 0.195,0.339 0.5,0.499 0.885,0.52 0.574,0.072 0.794,-0.175 0.777,-0.755 C -0.316,4.945 0.01,2.834 0.158,0.714 0.176,0.462 0.232,0.2 0,0" /></g><g
             transform="translate(95.3892,120.9961)"
             id="g248"><path
               inkscape:connector-curvature="0"
               id="path250"
               style="fill:#706d6e;fill-opacity:1;fill-rule:evenodd;stroke:none"
               d="M 0,0 C -0.242,-0.107 -0.484,-0.202 -0.754,-0.189 -0.896,0.103 -0.848,0.366 -0.643,0.606 -0.18,1.139 0.365,1.58 0.924,1.997 1.25,2.236 1.541,2.077 1.584,1.651 1.619,1.306 1.576,0.952 1.564,0.604 1.486,0.448 1.404,0.293 1.322,0.138 0.877,0.116 0.361,0.794 0,0" /></g><g
             transform="translate(96.9575,119.3975)"
             id="g252"><path
               inkscape:connector-curvature="0"
               id="path254"
               style="fill:#706d6e;fill-opacity:1;fill-rule:evenodd;stroke:none"
               d="M 0,0 C -0.004,0.729 -0.006,1.459 -0.008,2.189 0.314,1.459 0.205,0.73 0,0" /></g><g
             transform="translate(94.397,120.5615)"
             id="g256"><path
               inkscape:connector-curvature="0"
               id="path258"
               style="fill:#7c7a7a;fill-opacity:1;fill-rule:evenodd;stroke:none"
               d="M 0,0 C 0,-0.371 0.002,-0.74 0.002,-1.111 -0.197,-0.741 -0.176,-0.34 -0.154,0.057 -0.104,0.037 -0.051,0.017 0,0" /></g><g
             transform="translate(93.8716,120.6035)"
             id="g260"><path
               inkscape:connector-curvature="0"
               id="path262"
               style="fill:#7c7a7a;fill-opacity:1;fill-rule:evenodd;stroke:none"
               d="M 0,0 C 0.27,-0.959 0.27,-1.923 0.014,-2.886 0.01,-1.924 0.004,-0.962 0,0" /></g><g
             transform="translate(95.3892,120.9961)"
             id="g264"><path
               inkscape:connector-curvature="0"
               id="path266"
               style="fill:#d7d6d6;fill-opacity:1;fill-rule:evenodd;stroke:none"
               d="M 0,0 C 0.02,0.091 0.037,0.182 0.061,0.274 0.168,0.665 0.4,1.024 0.801,1.035 1.219,1.046 1.066,0.542 1.229,0.301 1.266,0.249 1.293,0.19 1.322,0.138 1.326,-0.086 1.328,-0.31 1.33,-0.532 1.18,-0.786 1.342,-1.096 1.184,-1.348 1.094,-2.783 1.33,-4.199 1.447,-5.62 1.488,-6.096 1.541,-6.569 1.6,-7.042 1.641,-7.39 1.453,-7.493 1.152,-7.503 0.893,-6.085 0.945,-4.642 0.793,-3.212 0.691,-2.297 0.523,-1.381 0.568,-0.448 0.59,-0.066 0.34,0.043 0,0" /></g><g
             transform="translate(94.4087,119.2529)"
             id="g268"><path
               inkscape:connector-curvature="0"
               id="path270"
               style="fill:#7c7a7a;fill-opacity:1;fill-rule:evenodd;stroke:none"
               d="M 0,0 C 0,-2.057 -0.002,-4.114 -0.002,-6.17 -0.262,-4.114 -0.312,-2.057 0,0" /></g><g
             transform="translate(96.5728,119.6484)"
             id="g272"><path
               inkscape:connector-curvature="0"
               id="path274"
               style="fill:#706d6e;fill-opacity:1;fill-rule:evenodd;stroke:none"
               d="M 0,0 C -0.027,0.286 0,0.561 0.146,0.815 0.176,0.529 0.145,0.254 0,0" /></g><g
             transform="translate(79.4941,104.8125)"
             id="g276"><path
               inkscape:connector-curvature="0"
               id="path278"
               style="fill:#eeeeee;fill-opacity:1;fill-rule:evenodd;stroke:none"
               d="M 0,0 C 0.211,0.192 0.188,0.463 0.234,0.71 0.273,0.915 0.384,1.062 0.614,1.069 0.819,1.075 0.87,0.907 0.926,0.763 1.01,0.555 1.065,0.335 1.243,0.181 0.838,0.066 0.424,0.001 0,0" /></g><g
             transform="translate(71.252,112.833)"
             id="g280"><path
               inkscape:connector-curvature="0"
               id="path282"
               style="fill:#6b6869;fill-opacity:1;fill-rule:evenodd;stroke:none"
               d="M 0,0 C -0.611,0.053 -1.246,-0.043 -1.827,0.289 -0.752,0.546 0.354,0.315 1.411,0.608 1.542,0.973 1.852,1.033 2.178,1.063 3.23,1.106 4.282,1.08 5.313,0.824 5.885,0.683 6.451,0.706 7.021,0.847 c 0.842,0.211 1.7,0.254 2.562,0.195 1.326,-0.247 2.636,-0.074 3.947,0.145 0.328,0.05 0.658,0.093 0.98,-0.041 0.141,-0.084 0.254,-0.205 0.371,-0.315 0.889,-0.08 1.756,0.321 2.85,0.133 C 16.774,0.468 15.85,0.578 15.042,0.267 14.374,0.21 13.702,0.179 13.04,0.091 10.782,-0.206 8.521,0.018 6.261,-0.005 4.826,-0.019 3.391,0.034 1.957,0.055 1.307,-0.034 0.657,-0.188 0,0" /></g><g
             transform="translate(72.4717,111.1582)"
             id="g284"><path
               inkscape:connector-curvature="0"
               id="path286"
               style="fill:#d8d7d7;fill-opacity:1;fill-rule:evenodd;stroke:none"
               d="m 0,0 c -0.071,0.314 -0.245,0.503 -0.515,0.213 -0.255,-0.276 -0.429,-0.626 -0.64,-0.948 -0.133,-0.203 -0.173,-0.487 -0.524,-0.556 -0.247,0.586 0.065,1.272 -0.296,1.83 0.047,0.515 0.112,1.017 0.755,1.136 C -0.57,1.79 0.081,1.812 0.737,1.729 0.483,1.564 0.186,1.581 -0.094,1.513 -0.559,1.401 -0.682,0.997 -0.333,0.664 -0.128,0.468 0.203,0.383 0,0" /></g><g
             transform="translate(86.3286,111.1738)"
             id="g288"><path
               inkscape:connector-curvature="0"
               id="path290"
               style="fill:#d9d8d8;fill-opacity:1;fill-rule:evenodd;stroke:none"
               d="M 0,0 C -0.262,0.262 -0.256,0.579 -0.062,0.842 0.053,0.999 0.283,0.902 0.447,0.789 0.1,0.64 0,0.347 0,0" /></g><g
             transform="translate(81.6235,107.4863)"
             id="g292"><path
               inkscape:connector-curvature="0"
               id="path294"
               style="fill:#676464;fill-opacity:1;fill-rule:evenodd;stroke:none"
               d="M 0,0 C -0.172,0.044 -0.264,0.141 -0.23,0.275 -0.217,0.33 -0.082,0.389 0,0.386 0.145,0.386 0.234,0.273 0.193,0.135 0.174,0.069 0.055,0.037 0,0" /></g><g
             transform="translate(71.8838,109.8389)"
             id="g296"><path
               inkscape:connector-curvature="0"
               id="path298"
               style="fill:#cccbcb;fill-opacity:1;fill-rule:evenodd;stroke:none"
               d="M 0,0 C -0.371,0.342 0.015,0.515 0.161,0.742 0.173,0.48 0.095,0.239 0,0" /></g><g
             transform="translate(86.1333,113.6641)"
             id="g300"><path
               inkscape:connector-curvature="0"
               id="path302"
               style="fill:#f0efef;fill-opacity:1;fill-rule:evenodd;stroke:none"
               d="m 0,0 c -0.109,-0.012 -0.217,-0.024 -0.322,-0.036 -0.266,-0.13 -0.573,0.013 -0.834,-0.137 -1.352,-0.096 -2.696,-0.334 -4.059,-0.195 -2.072,0.171 -4.15,0.02 -6.226,0.077 -0.444,0.012 -0.894,-0.083 -1.332,0.074 -0.231,-0.003 -0.464,-0.003 -0.697,-0.006 -0.253,0.024 -0.506,0.045 -0.758,0.066 -0.221,0.146 -0.417,0.322 -0.385,0.614 0.146,1.352 -0.419,2.667 -0.22,4.009 0.213,1.451 0.27,2.919 0.526,4.363 0.062,0.346 0.223,0.597 0.614,0.617 0.467,-0.076 0.775,-0.352 0.964,-0.774 0.471,-1.539 0.41,-3.13 0.45,-4.711 0.016,-0.649 -0.003,-1.332 0.625,-1.775 0.295,-0.217 0.636,-0.337 0.988,-0.32 1.487,0.081 2.95,-0.275 4.428,-0.218 0.955,0.037 1.871,-0.242 2.822,-0.23 0.676,0.01 1.086,0.173 1.008,0.999 -0.074,0.741 -0.006,1.496 -0.006,2.246 0.068,0.82 -0.08,1.645 0.174,2.466 0.125,0.392 -0.067,0.799 -0.629,0.821 -1.625,0.062 -3.225,0.281 -4.876,0.181 -1.174,-0.072 -2.472,0.056 -3.634,0.559 -0.089,0.649 0.449,0.634 0.813,0.692 0.662,0.104 1.321,0.209 1.973,0.373 1.728,0.435 3.519,0.567 5.224,1.113 0.181,0.056 0.377,0.084 0.566,0.102 0.944,0.086 1.172,-0.108 1.256,-1.078 C -1.523,9.605 -1.502,9.32 -1.355,9.063 -1.26,6.539 -1.098,4.027 -0.326,1.595 -0.164,1.079 -0.107,0.53 0,0" /></g><g
             transform="translate(72.4404,123.1104)"
             id="g304"><path
               inkscape:connector-curvature="0"
               id="path306"
               style="fill:#d8d7d7;fill-opacity:1;fill-rule:evenodd;stroke:none"
               d="m 0,0 c -0.216,-1.005 -0.405,-2.015 -0.387,-3.046 0.015,-0.826 -0.299,-1.616 -0.23,-2.458 0.03,-0.368 -0.053,-0.763 0.028,-1.14 0.214,-0.984 0.231,-1.97 0.054,-2.96 -0.755,-0.087 -1.482,-0.098 -1.991,0.619 -0.071,0.098 -0.202,0.156 -0.311,0.223 -0.572,0.355 -0.694,0.603 -0.502,1.208 0.084,0.272 0.233,0.53 0.392,0.767 0.576,0.857 1.027,1.74 1.082,2.815 0.021,0.412 0.105,0.798 -0.026,1.215 -0.211,0.673 -0.152,1.321 0.271,1.924 0.343,0.491 0.396,1.074 0.422,1.655 0.009,0.202 0.04,0.37 0.304,0.394 0.609,0.056 0.714,0.172 0.655,0.713 -0.021,0.185 -0.11,0.365 -0.153,0.552 -0.074,0.323 0.16,0.371 0.39,0.415 l -0.002,0 c -0.127,0.5 -0.253,1 -0.38,1.501 0.255,0.01 0.509,0.023 0.765,0.036 C 0.179,4.223 0.255,4.058 0.436,3.866 0.828,3.451 0.933,2.948 0.898,2.382 0.867,1.857 0.777,1.404 0.334,1.049 0.017,0.797 0.003,0.386 0,0" /></g><g
             transform="translate(74.125,115.3721)"
             id="g308"><path
               inkscape:connector-curvature="0"
               id="path310"
               style="fill:#5f5c5d;fill-opacity:1;fill-rule:evenodd;stroke:none"
               d="m 0,0 c -0.219,0.113 -0.321,0.304 -0.354,0.539 -0.046,0.35 -0.133,0.698 -0.132,1.047 0.002,1.592 -0.268,3.157 -0.409,4.738 -0.021,0.24 0.117,0.427 0.174,0.64 0.45,0.006 0.9,0.012 1.35,0.018 C 2.379,7.026 4.101,6.568 5.87,6.77 7.069,6.905 8.278,6.526 9.499,6.615 9.917,6.648 10.168,6.432 10.094,5.963 9.932,4.955 10.063,3.924 9.866,2.914 9.838,2.856 9.819,2.797 9.795,2.738 9.668,2.419 10.04,1.804 9.532,1.799 9.1,1.795 9.25,2.412 9.208,2.771 9.18,3.421 9.252,4.07 9.071,4.716 8.891,5.349 8.502,5.697 7.885,5.819 7.086,5.979 6.303,6.147 5.475,5.86 4.771,5.616 4.012,5.678 3.278,5.805 2.704,5.906 2.127,5.944 1.551,5.946 0.45,5.95 0.283,5.692 0.395,4.577 0.477,3.752 0.44,2.914 0.527,2.084 0.572,1.652 0.647,1.255 1.072,1.025 1.422,0.808 1.896,0.863 2.186,0.521 2.287,0.403 2.415,0.285 2.373,0.112 2.323,-0.085 2.141,-0.075 1.988,-0.068 1.325,-0.037 0.658,-0.155 0,0" /></g><g
             transform="translate(62.1904,119.7979)"
             id="g312"><path
               inkscape:connector-curvature="0"
               id="path314"
               style="fill:#797677;fill-opacity:1;fill-rule:evenodd;stroke:none"
               d="M 0,0 C 0.005,-0.109 0.009,-0.222 0.012,-0.333 -0.536,-0.442 -1.099,-0.635 -1.653,-0.016 -1.034,0.145 -0.513,-0.006 0,0" /></g><g
             transform="translate(62.0137,118.0811)"
             id="g316"><path
               inkscape:connector-curvature="0"
               id="path318"
               style="fill:#828081;fill-opacity:1;fill-rule:evenodd;stroke:none"
               d="m 0,0 c 0.268,-0.121 0.458,-0.273 0.203,-0.58 -0.361,0.026 -0.74,0.017 -0.999,0.367 C -0.563,0.116 -0.249,-0.073 0,0" /></g><g
             transform="translate(70.1074,111.1436)"
             id="g320"><path
               inkscape:connector-curvature="0"
               id="path322"
               style="fill:#d8d7d7;fill-opacity:1;fill-rule:evenodd;stroke:none"
               d="M 0,0 C 0.012,-0.114 0.021,-0.229 0.032,-0.345 -0.024,-0.405 -0.109,-0.523 -0.127,-0.342 -0.136,-0.232 -0.045,-0.114 0,0" /></g><g
             transform="translate(69.5537,110.918)"
             id="g324"><path
               inkscape:connector-curvature="0"
               id="path326"
               style="fill:#d8d7d7;fill-opacity:1;fill-rule:evenodd;stroke:none"
               d="M 0,0 -0.052,0.046 0.01,0.065 0,0 Z" /></g><g
             transform="translate(65.4814,124.1104)"
             id="g328"><path
               inkscape:connector-curvature="0"
               id="path330"
               style="fill:#5d5a5b;fill-opacity:1;fill-rule:evenodd;stroke:none"
               d="M 0,0 C 0.791,0.308 0.853,0.259 0.835,-0.567 0.814,-1.547 0.81,-2.528 0.797,-3.509 0.575,-4.774 0.427,-6.049 0.399,-7.336 0.393,-7.585 0.46,-7.886 0.144,-8 c -0.261,-0.093 -0.41,0.11 -0.553,0.286 -0.328,0.408 -0.752,0.412 -1.225,0.326 -1.064,-0.191 -1.03,-0.176 -1.069,0.941 -0.052,1.449 -0.038,2.89 0.183,4.324 0.037,0.242 -0.008,0.521 0.253,0.676 0.293,-0.074 0.222,-0.29 0.207,-0.472 -0.066,-0.799 -0.164,-1.597 -0.208,-2.397 -0.029,-0.542 -0.029,-1.096 0.03,-1.637 0.108,-1.011 0.176,-1.012 0.956,-0.871 0.372,0.068 0.66,-0.237 1.106,-0.166 0.277,2.065 0.597,4.139 0.385,6.318 -0.527,-0.142 -1.045,-0.276 -1.56,-0.421 -0.305,-0.087 -0.423,0.075 -0.447,0.333 -0.022,0.26 0.153,0.317 0.374,0.299 C -0.885,-0.508 -0.411,-0.346 0,0" /></g><g
             transform="translate(79.375,128.7275)"
             id="g332"><path
               inkscape:connector-curvature="0"
               id="path334"
               style="fill:#c7c6c6;fill-opacity:1;fill-rule:evenodd;stroke:none"
               d="M 0,0 C -0.278,0.491 -0.787,0.298 -1.195,0.399 -0.334,0.714 0.577,0.542 1.461,0.68 3.196,0.949 4.95,1.059 6.717,0.799 5.842,0.697 4.965,0.595 4.086,0.491 2.723,0.326 1.362,0.163 0,0" /></g><g
             transform="translate(93.981,132.127)"
             id="g336"><path
               inkscape:connector-curvature="0"
               id="path338"
               style="fill:#d3d2d3;fill-opacity:1;fill-rule:evenodd;stroke:none"
               d="M 0,0 C -0.029,-0.004 -0.072,-0.017 -0.084,-0.005 -0.133,0.054 -0.111,0.103 -0.033,0.119 -0.014,0.125 0.027,0.098 0.029,0.076 0.037,0.054 0.012,0.025 0,0" /></g><g
             transform="translate(80.0156,107.1279)"
             id="g340"><path
               inkscape:connector-curvature="0"
               id="path342"
               style="fill:#cac9ca;fill-opacity:1;fill-rule:evenodd;stroke:none"
               d="m 0,0 c 0.216,-0.239 0.241,-0.444 0.017,-0.632 -0.023,-0.018 -0.133,0.02 -0.155,0.06 C -0.259,-0.342 -0.13,-0.183 0,0" /></g><g
             transform="translate(73.3604,113.4473)"
             id="g344"><path
               inkscape:connector-curvature="0"
               id="path346"
               style="fill:#d8d7d7;fill-opacity:1;fill-rule:evenodd;stroke:none"
               d="m 0,0 c 2.242,0.008 4.482,0.018 6.723,0.022 0.29,0 0.575,-0.036 0.835,-0.173 C 5.515,-0.159 3.469,-0.175 1.423,-0.172 0.944,-0.172 0.461,-0.171 0,0" /></g><g
             transform="translate(84.9771,113.4912)"
             id="g348"><path
               inkscape:connector-curvature="0"
               id="path350"
               style="fill:#d9d8d8;fill-opacity:1;fill-rule:evenodd;stroke:none"
               d="M 0,0 C 0.262,0.151 0.541,0.174 0.834,0.137 0.576,-0.031 0.287,-0.014 0,0" /></g><g
             transform="translate(81.4146,111.4629)"
             id="g352"><path
               inkscape:connector-curvature="0"
               id="path354"
               style="fill:#e0dfdf;fill-opacity:1;fill-rule:evenodd;stroke:none"
               d="M 0,0 C 0.104,-0.377 0.479,-0.703 0.021,-1.104 -0.176,-1.281 -0.041,-1.515 0.008,-1.728 0.037,-1.854 0.037,-1.994 -0.1,-2.05 -0.275,-2.122 -0.396,-2.02 -0.49,-1.877 -0.863,-1.303 -0.656,-0.438 0,0" /></g><g
             transform="translate(77.1221,106.2949)"
             id="g356"><path
               inkscape:connector-curvature="0"
               id="path358"
               style="fill:#cecdcd;fill-opacity:1;fill-rule:evenodd;stroke:none"
               d="M 0,0 C -0.05,0.476 0.059,0.712 0.364,0.944 0.491,0.529 0.345,0.288 0,0" /></g><g
             transform="translate(70.9365,106.1768)"
             id="g360"><path
               inkscape:connector-curvature="0"
               id="path362"
               style="fill:#cccbcb;fill-opacity:1;fill-rule:evenodd;stroke:none"
               d="M 0,0 C 0.007,0.096 0.039,0.187 0.142,0.201 0.256,0.217 0.295,0.128 0.301,0.029 0.305,-0.068 0.267,-0.158 0.163,-0.17 0.055,-0.182 0,-0.108 0,0" /></g><g
             transform="translate(75.5176,110.5752)"
             id="g364"><path
               inkscape:connector-curvature="0"
               id="path366"
               style="fill:#e7e7e7;fill-opacity:1;fill-rule:evenodd;stroke:none"
               d="M 0,0 C -0.011,0.259 0.02,0.506 0.228,0.693 0.475,0.921 0.821,0.863 0.913,0.545 1.047,0.073 1.021,-0.399 0.716,-0.813 0.514,-1.088 0.325,-1.056 0.159,-0.738 0.036,-0.505 0.001,-0.258 0,0" /></g><g
             transform="translate(74.125,115.3721)"
             id="g368"><path
               inkscape:connector-curvature="0"
               id="path370"
               style="fill:#737171;fill-opacity:1;fill-rule:evenodd;stroke:none"
               d="M 0,0 C 0.313,0.013 0.628,0.029 0.942,0.037 1.254,0.043 1.566,0.038 1.889,0.11 1.413,0.271 0.877,0.124 0.433,0.396 0.616,0.919 1.086,0.84 1.484,0.871 2.679,0.965 3.861,0.826 5.035,0.63 5.771,0.509 6.506,0.489 7.247,0.512 8.374,0.546 8.85,0.955 9.018,2.069 9.071,2.431 8.93,2.859 9.469,2.966 9.495,2.714 9.52,2.463 9.559,2.059 9.696,2.433 9.78,2.674 9.866,2.914 9.997,1.967 9.795,0.998 10.047,0.056 10.122,-0.227 9.924,-0.339 9.702,-0.426 9.362,-0.56 9.01,-0.578 8.661,-0.547 7.014,-0.388 5.348,-0.543 3.705,-0.206 2.896,-0.041 2.051,-0.11 1.22,-0.132 0.811,-0.14 0.386,-0.221 0,0" /></g><g
             transform="translate(72.4365,126.0068)"
             id="g372"><path
               inkscape:connector-curvature="0"
               id="path374"
               style="fill:#e2e1e2;fill-opacity:1;fill-rule:evenodd;stroke:none"
               d="M 0,0 C 0.114,0.016 0.237,0.049 0.282,-0.106 0.287,-0.128 0.263,-0.171 0.243,-0.177 0.086,-0.225 0.053,-0.099 0.002,0 L 0,0 Z" /></g><g
             transform="translate(83.5942,118.3379)"
             id="g376"><path
               inkscape:connector-curvature="0"
               id="path378"
               style="fill:#efefef;fill-opacity:1;fill-rule:evenodd;stroke:none"
               d="m 0,0 c -0.213,-0.718 -0.072,-1.456 -0.139,-2.182 -0.064,-0.733 -0.076,-0.779 -0.785,-0.762 -1.656,0.043 -3.313,0 -4.958,0.32 -1.038,0.203 -2.103,0.086 -3.155,0.054 -0.442,0.257 -0.396,0.71 -0.407,1.114 -0.023,0.836 -0.011,1.672 -0.005,2.507 0.005,0.484 -0.034,0.952 -0.194,1.421 -0.244,0.717 -0.028,0.997 0.708,1.023 1.026,0.037 2.049,0.055 3.059,-0.217 0.466,-0.126 0.962,-0.022 1.439,0.037 0.74,0.092 1.464,0.074 2.199,-0.063 0.5,-0.096 1.023,-0.062 1.535,-0.096 C -0.045,3.113 0.006,3.062 0.008,2.41 0.008,1.606 0.002,0.804 0,0" /></g><g
             transform="translate(79.9727,120.0244)"
             id="g380"><path
               inkscape:connector-curvature="0"
               id="path382"
               style="fill:#f0f0f0;fill-opacity:1;fill-rule:evenodd;stroke:none"
               d="m 0,0 c 0.146,0.01 0.292,0.021 0.434,0.03 0.539,1 0.971,1.021 1.709,0.13 0.383,-0.459 0.69,-0.896 0.645,-1.552 C 2.723,-2.439 2.35,-2.896 1.303,-2.958 0.631,-2.998 0.026,-2.597 -0.653,-2.616 -0.77,-2.622 -0.857,-2.479 -0.94,-2.378 -1.528,-1.643 -0.955,-0.191 0,0" /></g><g
             transform="translate(79.9727,120.0244)"
             id="g384"><path
               inkscape:connector-curvature="0"
               id="path386"
               style="fill:#6b6869;fill-opacity:1;fill-rule:evenodd;stroke:none"
               d="m 0,0 c -0.639,-0.376 -0.904,-0.984 -0.927,-1.679 -0.019,-0.649 0.334,-0.844 0.944,-0.55 0.251,0.121 0.425,0.121 0.544,-0.14 0.244,-0.538 0.709,-0.361 1.074,-0.273 0.403,0.097 0.791,0.351 0.83,0.822 0.045,0.49 0.172,1.031 -0.316,1.419 C 1.967,-0.256 1.942,-0.01 1.825,0.175 1.508,0.67 1.219,0.682 0.836,0.193 0.717,0.04 0.598,0.014 0.434,0.03 0.211,0.931 0.516,1.266 1.36,1.054 2.069,0.875 2.909,-0.102 3.014,-0.895 3.053,-1.18 3.042,-1.471 3.069,-1.757 3.127,-2.365 2.795,-2.759 2.301,-2.965 c -0.56,-0.236 -1.16,-0.39 -1.771,-0.14 -0.301,0.122 -0.607,0.178 -0.929,0.212 -0.633,0.069 -0.972,0.438 -1,1.08 -0.039,0.858 0.34,1.569 0.942,2.13 C -0.11,0.64 0.048,0.4 0,0" /></g><g
             transform="translate(77.7627,120.1514)"
             id="g388"><path
               inkscape:connector-curvature="0"
               id="path390"
               style="fill:#6f6c6d;fill-opacity:1;fill-rule:evenodd;stroke:none"
               d="M 0,0 C -1.083,-0.071 -2.18,-0.317 -3.211,0.241 -2.689,0.59 -2.15,0.299 -1.629,0.282 -1.083,0.267 -0.507,0.34 0,0" /></g><g
             transform="translate(76.5635,118.9424)"
             id="g392"><path
               inkscape:connector-curvature="0"
               id="path394"
               style="fill:#737171;fill-opacity:1;fill-rule:evenodd;stroke:none"
               d="M 0,0 C -0.703,-0.296 -1.48,-0.323 -2.085,-0.073 -1.373,0.297 -0.809,0.315 0,0" /></g><g
             transform="translate(76.1484,117.6611)"
             id="g396"><path
               inkscape:connector-curvature="0"
               id="path398"
               style="fill:#727071;fill-opacity:1;fill-rule:evenodd;stroke:none"
               d="m 0,0 c -0.451,-0.223 -0.727,-0.187 -0.912,0.149 -0.02,0.036 0.019,0.142 0.057,0.16 C -0.508,0.48 -0.3,0.27 0,0" /></g><g
             transform="translate(112.2017,32.9316)"
             id="g400"><path
               inkscape:connector-curvature="0"
               id="path402"
               style="fill:#231f20;fill-opacity:1;fill-rule:nonzero;stroke:none"
               d="m 0,0 c -0.579,4.239 -3.291,4.697 -4.43,4.697 -0.714,0 -1.295,-0.163 -1.554,-0.324 -0.709,-0.438 -1.529,-1.436 -1.941,-2.534 -1.354,3.301 -2.137,3.782 -2.725,3.782 -0.377,0 -0.695,-0.234 -0.944,-0.693 -0.579,-1.068 -0.435,-2.89 0.073,-3.745 0.301,-0.506 0.665,-0.613 0.917,-0.613 0.152,0 0.305,0.04 0.455,0.117 0.33,0.169 1.052,1.23 1.242,1.605 l 0.856,-2.641 c 0.125,-0.538 0.681,-2.124 2.023,-4.286 -0.028,-0.003 -0.055,-0.007 -0.082,-0.012 -0.463,-0.091 -0.824,-0.604 -1.043,-1.019 -0.454,-0.853 -0.75,-2.093 -0.491,-3.118 -0.202,-0.066 -0.414,-0.127 -0.636,-0.184 -0.109,-0.027 -0.199,-0.102 -0.246,-0.203 -0.048,-0.101 -0.048,-0.219 0,-0.32 0.264,-0.56 1.409,-0.678 2.323,-0.678 0.365,0 1.612,0.028 2.31,0.387 0.926,0.471 1.794,2.374 1.052,3.936 -0.352,0.744 -1.016,1.487 -1.721,2.273 -0.909,1.016 -1.94,2.169 -2.467,3.524 -0.028,0.07 -0.06,0.153 -0.105,0.23 0.277,1.196 1.637,2.15 2.65,1.673 0,0 2.195,-1.747 1.046,-2.964 -0.416,-0.374 -0.468,-0.008 -0.801,0.117 -0.127,0.047 -0.268,0.023 -0.371,-0.062 -0.104,-0.086 -0.154,-0.221 -0.13,-0.353 0.161,-0.922 1.167,-1.908 2.407,-1.908 0.266,0 0.529,0.046 0.783,0.137 C -0.452,-2.788 0.199,-1.45 0,0" /></g><g
             transform="translate(75.6899,73.1567)"
             id="g404"><path
               inkscape:connector-curvature="0"
               id="path406"
               style="fill:#231f20;fill-opacity:1;fill-rule:nonzero;stroke:none"
               d="M 0,0 0.004,0.059 C 0.035,0.492 0.17,0.831 0.311,0.831 0.342,0.831 0.396,0.823 0.479,0.784 0.625,0.716 0.769,0.666 0.91,0.634 0.593,0.477 0.289,0.265 0,0 m 2.398,0.965 c -0.004,0 -0.095,0.002 -0.099,0.002 -0.024,0 -0.049,-0.001 -0.072,-0.001 0.26,0.223 0.427,0.492 0.516,0.636 0.358,0.571 0.72,2.05 0.44,3.229 C 3.138,5.021 2.949,5.141 2.763,5.116 2.57,5.087 2.432,4.916 2.444,4.721 2.479,4.153 2.309,3.15 1.712,2.192 1.57,1.962 1.46,1.962 1.401,1.962 1.276,1.962 1.117,2.02 0.947,2.08 0.574,2.214 0.08,2.315 -0.273,2.075 -1.064,1.533 -1.323,-0.958 -1.39,-1.918 c -1.322,-2.635 0.459,-5.473 1.66,-6.339 0.724,-0.52 2.499,-0.942 3.957,-0.942 1.441,0 2.45,0.38 2.95,1.16 0.675,1.628 0.251,3.883 -1.135,6.033 -0.936,1.45 -2.425,2.932 -3.644,2.971" /></g><g
             transform="translate(92.7271,73.9468)"
             id="g408"><path
               inkscape:connector-curvature="0"
               id="path410"
               style="fill:#231f20;fill-opacity:1;fill-rule:nonzero;stroke:none"
               d="M 0,0 C 0.042,0.047 0.119,0.111 0.302,0.111 0.34,0.111 0.381,0.108 0.427,0.102 0.553,0.086 0.691,0.058 0.785,0.08 0.461,-0.288 0.168,-0.74 -0.088,-1.27 L -0.14,-0.823 C -0.183,-0.467 -0.128,-0.144 0,0 m 9.172,-12.739 c -0.058,0.177 -0.24,0.289 -0.42,0.255 -0.474,-0.08 -0.932,-0.121 -1.363,-0.121 -1.66,0 -2.632,0.595 -2.735,1.182 -0.092,0.53 0.522,1.102 1.541,1.475 1.371,0.246 2.282,0.823 2.653,1.73 0.464,2.015 -0.337,4.57 -2.141,6.835 C 5.353,0.319 3.843,1.338 2.78,1.208 2.73,1.202 2.682,1.194 2.632,1.186 2.712,1.325 2.77,1.451 2.812,1.542 3.126,2.224 3.258,3.828 2.672,4.942 2.623,5.035 2.542,5.096 2.449,5.121 2.204,5.327 1.872,5.437 1.481,5.437 0.332,5.437 -1.169,4.492 -1.571,3.084 -1.598,2.994 -1.588,2.896 -1.546,2.812 -1.208,2.143 -0.813,1.677 -0.364,1.416 -0.496,1.364 -0.625,1.289 -0.743,1.178 -1.569,0.402 -1.154,-2.83 -0.834,-4.687 c 0,-0.005 0.001,-0.01 0.002,-0.015 0.179,-2.295 1.71,-4.199 2.754,-4.825 0.194,-0.117 0.454,-0.219 0.774,-0.305 0.218,-1.418 0.779,-4.147 3.451,-4.147 0.811,0 1.763,0.266 2.832,0.788 0.167,0.082 0.25,0.274 0.193,0.452" /></g><g
             transform="translate(58.7461,36.5439)"
             id="g412"><path
               inkscape:connector-curvature="0"
               id="path414"
               style="fill:#231f20;fill-opacity:1;fill-rule:nonzero;stroke:none"
               d="M 0,0 C 0.248,-0.031 0.482,-0.047 0.705,-0.049 0.529,-0.121 0.363,-0.173 0.209,-0.173 0.09,-0.173 -0.096,-0.145 -0.333,0.099 -0.335,0.101 -0.338,0.104 -0.34,0.106 -0.178,0.04 -0.057,0.005 0,0 m 4.185,-2.476 c 0.32,-0.529 0.684,-1.128 0.732,-1.807 0.018,-0.244 -0.014,-0.409 -0.082,-0.545 -0.07,0.094 -0.146,0.188 -0.226,0.281 -0.283,1.185 -0.551,2.073 -0.796,2.74 0.09,-0.201 0.224,-0.424 0.372,-0.669 m 1.148,3.86 C 5.233,1.392 5.125,1.363 5.043,1.29 4.256,0.581 3.54,-0.927 3.778,-1.711 3.143,-0.021 2.667,0.183 2.47,0.266 2.442,0.278 2.413,0.289 2.383,0.298 3.178,0.705 3.676,1.463 3.85,2.547 3.869,2.667 3.829,2.789 3.742,2.874 2.812,3.786 1.259,4.111 0.117,4.111 -1.056,4.111 -1.95,3.817 -2.374,3.309 -2.499,3.259 -2.592,3.145 -2.609,3.004 -2.613,2.967 -2.615,2.929 -2.608,2.908 -2.607,2.898 -2.605,2.888 -2.604,2.876 -2.666,2.663 -2.663,2.447 -2.61,2.311 c 0.092,-1.207 0.714,-2.513 1.234,-3.027 0.417,-0.427 1.003,-0.917 1.834,-0.917 0.396,0 0.805,0.116 1.217,0.346 0.131,0.073 0.249,0.11 0.35,0.11 0.339,0 0.585,-0.501 0.693,-0.929 L 2.854,-2.64 c 0.042,-0.161 0.083,-0.319 0.122,-0.476 -1.12,0.741 -2.254,1.006 -3.331,0.767 -1.158,-0.255 -2.409,-1.786 -3.112,-3.809 -0.817,-2.351 -0.608,-4.608 0.605,-6.085 0.805,-0.69 2.33,-0.778 4.169,-0.278 0.673,-0.06 1.074,-0.331 1.191,-0.808 0.269,-1.093 -0.845,-2.922 -2.334,-3.836 -0.499,-0.302 -1.424,-0.561 -2.413,-0.675 -0.317,-0.039 -0.771,0.076 -1.212,0.182 -0.393,0.095 -0.765,0.183 -1.07,0.183 -0.669,0 -0.781,-0.46 -0.789,-0.553 -0.1,-0.376 0.004,-0.618 0.109,-0.755 0.238,-0.309 0.656,-0.345 0.95,-0.345 0.335,0 0.71,0.054 1.073,0.107 0.286,0.042 0.546,0.094 0.825,0.081 6.909,-0.488 7.28,5.403 7.454,8.175 0.018,0.286 0.034,0.543 0.055,0.759 0.507,1.011 0.694,2.176 0.521,3.228 0.459,1.052 0.63,1.833 0.521,2.382 -0.139,0.696 -0.323,1.138 -0.519,1.497 0.164,-0.057 0.334,-0.085 0.51,-0.085 0.537,0 1.109,0.277 1.697,0.823 0.067,0.062 0.109,0.146 0.118,0.237 C 8.102,-0.876 7.6,0.095 7.095,0.655 6.542,1.267 5.869,1.546 5.333,1.384" /></g><g
             transform="translate(104.5239,32.8057)"
             id="g416"><path
               inkscape:connector-curvature="0"
               id="path418"
               style="fill:#2da641;fill-opacity:1;fill-rule:nonzero;stroke:none"
               d="M 0,0 C 0.213,-0.419 0.043,0.605 0.299,-0.059 1.26,-2.53 3.725,-4.248 4.498,-5.881 5.154,-7.263 4.342,-8.952 3.615,-9.322 2.658,-9.813 -0.234,-9.787 -0.51,-9.205 2.572,-8.432 3.596,-6.738 2.658,-5.373 0.287,-1.922 -0.18,0.361 0,0" /></g><g
             transform="translate(104.8228,32.2715)"
             id="g420"><path
               inkscape:connector-curvature="0"
               id="path422"
               style="fill:none;stroke:#2da641;stroke-width:0.259;stroke-linecap:butt;stroke-linejoin:miter;stroke-miterlimit:10;stroke-dasharray:none;stroke-opacity:1"
               d="m 0,0 c -1.219,3.459 -2.865,7.29 -3.885,5.409 -0.722,-1.332 -0.193,-4.313 0.944,-3.728 1.179,0.607 1.224,3.133 -0.229,3.271 -0.603,0.153 -0.365,-2.06 0,-1.978 0.367,0.077 0.617,0.839 0.258,1.219" /></g><g
             transform="translate(107.8306,31.5879)"
             id="g424"><path
               inkscape:connector-curvature="0"
               id="path426"
               style="fill:#2da641;fill-opacity:1;fill-rule:nonzero;stroke:none"
               d="M 0,0 C 0.166,-0.949 1.416,-1.939 2.695,-1.482 3.645,-1.144 4.168,0.07 4,1.293 3.285,6.518 -0.807,5.776 -1.416,5.397 -2.361,4.812 -3.596,3.036 -3.43,1.597 -3.404,1.779 -3.199,0.943 -3.188,1.187 -3.072,3.525 0.494,5.435 1.592,1.256 1.83,0.343 1.416,-0.533 0,0" /></g><g
             transform="translate(107.5239,36.4648)"
             id="g428"><path
               inkscape:connector-curvature="0"
               id="path430"
               style="fill:none;stroke:#231f20;stroke-width:0.178;stroke-linecap:butt;stroke-linejoin:miter;stroke-miterlimit:10;stroke-dasharray:none;stroke-opacity:1"
               d="M 0,0 C -1.006,0.017 -2.701,-1.493 -3.115,-2.687" /></g><g
             transform="translate(107.5239,36.4648)"
             id="g432"><path
               inkscape:connector-curvature="0"
               id="path434"
               style="fill:none;stroke:#231f20;stroke-width:0.178;stroke-linecap:butt;stroke-linejoin:miter;stroke-miterlimit:10;stroke-dasharray:none;stroke-opacity:1"
               d="M 0,0 C 0.609,0.131 4.244,-1.115 3.197,-5.153 3.066,-5.655 2.311,-5.766 1.975,-5.599" /></g><g
             transform="translate(107.6978,26.8799)"
             id="g436"><path
               inkscape:connector-curvature="0"
               id="path438"
               style="fill:#27963c;fill-opacity:1;fill-rule:nonzero;stroke:none"
               d="M 0,0 C -0.393,0.624 -0.93,1.15 -1.535,1.036 -2.289,0.89 -3.379,-1.688 -2.594,-3.136 -2.07,-3.805 -0.496,-3.204 -0.145,-2.791 0.207,-2.376 0.67,-1.066 0,0" /></g><g
             transform="translate(107.6978,26.8799)"
             id="g440"><path
               inkscape:connector-curvature="0"
               id="path442"
               style="fill:none;stroke:#231f20;stroke-width:0.178;stroke-linecap:butt;stroke-linejoin:miter;stroke-miterlimit:10;stroke-dasharray:none;stroke-opacity:1"
               d="M 0,0 C -0.393,0.624 -0.93,1.15 -1.535,1.036 -2.289,0.89 -3.379,-1.688 -2.594,-3.136 -2.07,-3.805 -0.496,-3.204 -0.145,-2.791 0.207,-2.376 0.67,-1.066 0,0 Z" /></g><g
             transform="translate(107.6294,26.8398)"
             id="g444"><path
               inkscape:connector-curvature="0"
               id="path446"
               style="fill:#231f20;fill-opacity:1;fill-rule:nonzero;stroke:none"
               d="m 0,0 c -0.105,-0.736 0.088,-1.408 -1.68,-2.683 1.196,1.098 1.569,1.463 1.639,2.799" /></g><g
             transform="translate(46.1406,64.7168)"
             id="g448"><path
               inkscape:connector-curvature="0"
               id="path450"
               style="fill:#231f20;fill-opacity:1;fill-rule:nonzero;stroke:none"
               d="m 0,0 -5.159,0 0,12.676 1.051,0 0,-11.959 L 0,0.717 0,0 Z" /></g><g
             transform="translate(53.8975,70.6855)"
             id="g452"><path
               inkscape:connector-curvature="0"
               id="path454"
               style="fill:#231f20;fill-opacity:1;fill-rule:nonzero;stroke:none"
               d="M 0,0 C 0,2.273 -0.861,3.41 -2.588,3.41 -3.434,3.41 -4.1,3.081 -4.589,2.432 -5.127,1.696 -5.398,0.609 -5.398,-0.827 L 0,0 Z m 0.996,-0.498 -6.394,-0.939 c 0.147,-2.629 1.262,-3.944 3.345,-3.944 0.926,0 1.72,0.197 2.385,0.592 L 0.645,-5.51 c -0.687,-0.428 -1.589,-0.643 -2.708,-0.643 -1.29,0 -2.297,0.397 -3.021,1.198 -0.823,0.882 -1.235,2.211 -1.235,3.979 0,1.67 0.37,2.959 1.105,3.869 0.664,0.835 1.549,1.253 2.653,1.253 2.373,0 3.557,-1.548 3.557,-4.644" /></g><g
             transform="translate(68.9883,64.7168)"
             id="g456"><path
               inkscape:connector-curvature="0"
               id="path458"
               style="fill:#231f20;fill-opacity:1;fill-rule:nonzero;stroke:none"
               d="m 0,0 -1.169,0 -4.267,5.176 0,-5.176 -0.959,0 0,14.463 0.959,0 0,-9.251 3.935,4.718 1.113,0 L -4.479,5.194 0,0 Z" /></g><path
             inkscape:connector-curvature="0"
             id="path460"
             style="fill:#231f20;fill-opacity:1;fill-rule:nonzero;stroke:none"
             d="m 71.714,64.717 -0.994,0 0,9.93 0.994,0 0,-9.93 z m 0.167,12.714 c 0,-0.186 -0.066,-0.344 -0.194,-0.472 -0.13,-0.129 -0.286,-0.192 -0.47,-0.192 -0.185,0 -0.34,0.063 -0.469,0.192 -0.129,0.128 -0.194,0.286 -0.194,0.472 0,0.181 0.065,0.339 0.194,0.468 0.129,0.129 0.284,0.193 0.469,0.193 0.184,0 0.34,-0.064 0.47,-0.193 0.128,-0.129 0.194,-0.287 0.194,-0.468" /><g
             transform="translate(89.8618,67.3682)"
             id="g462"><path
               inkscape:connector-curvature="0"
               id="path464"
               style="fill:#231f20;fill-opacity:1;fill-rule:nonzero;stroke:none"
               d="m 0,0 c 0,-0.724 -0.283,-1.362 -0.848,-1.916 -0.613,-0.587 -1.361,-0.885 -2.25,-0.885 -0.994,0 -1.785,0.224 -2.373,0.664 l 0.295,0.7 c 0.465,-0.392 1.141,-0.588 2.028,-0.588 0.638,0 1.154,0.193 1.554,0.58 0.401,0.387 0.6,0.87 0.6,1.445 0,0.564 -0.16,1.014 -0.481,1.347 -0.267,0.295 -0.724,0.558 -1.363,0.793 -1.572,0.577 -2.357,1.503 -2.357,2.782 0,0.699 0.259,1.301 0.773,1.806 0.518,0.502 1.188,0.753 2.008,0.753 0.85,0 1.543,-0.219 2.084,-0.663 L -0.625,6.173 c -0.529,0.393 -1.107,0.59 -1.73,0.59 -0.604,0 -1.077,-0.175 -1.413,-0.525 C -4.105,5.888 -4.273,5.449 -4.273,4.922 -4.273,4.038 -3.66,3.373 -2.434,2.93 -0.811,2.342 0,1.364 0,0" /></g><g
             transform="translate(108.9321,65.3242)"
             id="g466"><path
               inkscape:connector-curvature="0"
               id="path468"
               style="fill:#231f20;fill-opacity:1;fill-rule:nonzero;stroke:none"
               d="m 0,0 c -0.863,-0.541 -1.918,-0.81 -3.17,-0.81 -2.137,0 -3.207,1.038 -3.207,3.113 l 0,7.019 0.998,0 0,-6.981 c 0,-0.738 0.186,-1.317 0.568,-1.734 0.405,-0.453 0.991,-0.679 1.75,-0.679 0.838,0 1.524,0.159 2.065,0.478 l 0,8.916 L 0,9.322 0,0 Z" /></g><g
             transform="translate(117.6821,70.6855)"
             id="g470"><path
               inkscape:connector-curvature="0"
               id="path472"
               style="fill:#231f20;fill-opacity:1;fill-rule:nonzero;stroke:none"
               d="M 0,0 C 0,2.273 -0.861,3.41 -2.59,3.41 -3.434,3.41 -4.1,3.081 -4.588,2.432 -5.129,1.696 -5.398,0.609 -5.398,-0.827 L 0,0 Z m 0.994,-0.498 -6.392,-0.939 c 0.146,-2.629 1.261,-3.944 3.345,-3.944 0.926,0 1.719,0.197 2.383,0.592 L 0.646,-5.51 c -0.689,-0.428 -1.591,-0.643 -2.709,-0.643 -1.289,0 -2.298,0.397 -3.023,1.198 -0.822,0.882 -1.232,2.211 -1.232,3.979 0,1.67 0.369,2.959 1.105,3.869 0.664,0.835 1.547,1.253 2.65,1.253 2.374,0 3.557,-1.548 3.557,-4.644" /></g><g
             transform="translate(83.8267,53.9453)"
             id="g474"><path
               inkscape:connector-curvature="0"
               id="path476"
               style="fill:#231f20;fill-opacity:1;fill-rule:nonzero;stroke:none"
               d="m 0,0 -0.592,0 -1.969,2.467 c 0.059,0.173 0.213,0.259 0.459,0.259 0.258,0 0.52,-0.086 0.791,-0.259 L 0,0 Z m 1.291,-10.226 0,5.011 c -1.607,-0.208 -2.723,-0.51 -3.359,-0.902 -0.799,-0.48 -1.194,-1.242 -1.194,-2.286 0,-1.486 0.875,-2.228 2.621,-2.228 0.786,0 1.428,0.135 1.932,0.405 m 0.938,-0.332 c -0.811,-0.454 -1.815,-0.681 -3.004,-0.681 -2.323,0 -3.481,0.946 -3.481,2.836 0,1.23 0.535,2.15 1.602,2.765 0.861,0.504 2.174,0.84 3.945,1.014 l 0,0.681 c 0,1.523 -0.805,2.285 -2.418,2.285 -0.785,0 -1.551,-0.217 -2.301,-0.645 l -0.276,0.645 c 0.833,0.48 1.729,0.718 2.688,0.718 0.934,0 1.684,-0.214 2.25,-0.645 0.661,-0.516 0.995,-1.309 0.995,-2.377 l 0,-6.596 z" /></g><g
             transform="translate(70.8076,34.25)"
             id="g478"><path
               inkscape:connector-curvature="0"
               id="path480"
               style="fill:#231f20;fill-opacity:1;fill-rule:nonzero;stroke:none"
               d="m 0,0 -0.293,-0.864 c -0.308,0.086 -0.621,0.129 -0.939,0.129 -0.639,0 -1.142,-0.135 -1.512,-0.406 l 0,-8.973 -0.996,0 0,9.415 c 0.506,0.258 0.97,0.429 1.401,0.515 C -1.786,-0.062 -1.007,0 0,0" /></g><g
             transform="translate(77.4219,24.9639)"
             id="g482"><path
               inkscape:connector-curvature="0"
               id="path484"
               style="fill:#231f20;fill-opacity:1;fill-rule:nonzero;stroke:none"
               d="M 0,0 0,5.012 C -1.603,4.804 -2.722,4.503 -3.357,4.11 -4.152,3.629 -4.552,2.867 -4.552,1.824 c 0,-1.486 0.877,-2.229 2.625,-2.229 0.784,0 1.424,0.136 1.927,0.405 m 0.941,-0.313 c -0.786,-0.466 -1.789,-0.699 -3.003,-0.699 -2.322,0 -3.482,0.947 -3.482,2.836 0,1.23 0.535,2.15 1.603,2.765 0.86,0.503 2.173,0.839 3.941,1.014 l 0,0.68 c 0,1.524 -0.804,2.286 -2.412,2.286 -0.786,0 -1.553,-0.216 -2.305,-0.646 l -0.274,0.646 c 0.835,0.48 1.729,0.717 2.689,0.717 0.934,0 1.682,-0.215 2.245,-0.643 C 0.608,8.126 0.941,7.334 0.941,6.265 l 0,-6.578 z" /></g><path
             inkscape:connector-curvature="0"
             id="path486"
             style="fill:#231f20;fill-opacity:1;fill-rule:nonzero;stroke:none"
             d="m 82.305,24.136 -0.996,0 0,9.931 0.996,0 0,-9.931 z m 0.164,12.713 c 0,-0.184 -0.062,-0.342 -0.191,-0.47 -0.129,-0.13 -0.285,-0.193 -0.469,-0.193 -0.185,0 -0.344,0.063 -0.473,0.193 -0.128,0.128 -0.191,0.286 -0.191,0.47 0,0.183 0.063,0.34 0.191,0.469 0.129,0.13 0.288,0.193 0.473,0.193 0.184,0 0.34,-0.063 0.469,-0.193 0.129,-0.129 0.191,-0.286 0.191,-0.469" /><g
             transform="translate(91.8501,24.1357)"
             id="g488"><path
               inkscape:connector-curvature="0"
               id="path490"
               style="fill:#231f20;fill-opacity:1;fill-rule:nonzero;stroke:none"
               d="m 0,0 -0.996,0 0,7.223 c 0,1.472 -0.793,2.21 -2.377,2.21 -0.834,0 -1.572,-0.134 -2.211,-0.406 l 0,-9.027 -0.994,0 0,9.415 c 0.871,0.467 1.99,0.699 3.351,0.699 1.155,0 2.016,-0.319 2.581,-0.958 C -0.215,8.653 0,8.025 0,7.278 L 0,0 Z" /></g><g
             transform="translate(100.6021,30.1055)"
             id="g492"><path
               inkscape:connector-curvature="0"
               id="path494"
               style="fill:#231f20;fill-opacity:1;fill-rule:nonzero;stroke:none"
               d="m 0,0 c 0,2.272 -0.865,3.409 -2.59,3.409 -0.844,0 -1.514,-0.328 -2,-0.978 C -5.131,1.694 -5.4,0.609 -5.4,-0.827 L 0,0 Z M 0.992,-0.499 -5.4,-1.437 c 0.146,-2.63 1.263,-3.944 3.345,-3.944 0.922,0 1.719,0.196 2.385,0.592 l 0.313,-0.722 c -0.686,-0.428 -1.592,-0.642 -2.707,-0.642 -1.291,0 -2.297,0.397 -3.022,1.197 -0.826,0.882 -1.234,2.212 -1.234,3.979 0,1.669 0.367,2.959 1.103,3.87 0.664,0.834 1.549,1.252 2.654,1.252 2.372,0 3.555,-1.547 3.555,-4.644" /></g><g
             transform="translate(74.625,70.29)"
             id="g496"><path
               inkscape:connector-curvature="0"
               id="path498"
               style="fill:#2da641;fill-opacity:1;fill-rule:nonzero;stroke:none"
               d="M 0,0 C 0.039,1.658 0.374,4.2 1.004,4.632 1.633,5.062 2.48,3.867 3.096,4.861 3.71,5.847 3.927,6.909 3.883,7.611 4.142,6.521 3.782,5.134 3.49,4.667 3.198,4.197 2.687,3.53 1.703,3.99 0.936,4.348 0.731,3.459 0.695,2.952 0.646,2.19 0.573,1.54 0.6,0.874" /></g><g
             transform="translate(74.6348,71.0703)"
             id="g500"><path
               inkscape:connector-curvature="0"
               id="path502"
               style="fill:#2da641;fill-opacity:1;fill-rule:nonzero;stroke:none"
               d="M 0,0 C 0.728,1.445 1.875,2.727 3.441,2.677 5.42,2.613 9.262,-2.49 7.885,-5.809 6.854,-7.395 2.609,-6.631 1.544,-5.866 0.481,-5.1 -1.245,-2.481 0,0" /></g><g
             transform="translate(75.1357,71.9316)"
             id="g504"><path
               inkscape:connector-curvature="0"
               id="path506"
               style="fill:#231f20;fill-opacity:1;fill-rule:nonzero;stroke:none"
               d="M 0,0 C 0.592,-1.518 0.592,-3.227 5.605,-5.35 2.125,-3.409 0.812,-2.455 0.211,0.161" /></g><g
             transform="translate(92.2622,69.3232)"
             id="g508"><path
               inkscape:connector-curvature="0"
               id="path510"
               style="fill:#2da641;fill-opacity:1;fill-rule:nonzero;stroke:none"
               d="m 0,0 c -0.289,1.676 -0.686,4.904 -0.021,5.528 0.662,0.621 1.912,-0.315 2.443,0.864 0.535,1.18 0.576,2.304 0.383,3 C 3.338,8.377 3.191,6.877 2.936,6.322 2.68,5.764 2.207,4.94 0.937,5.098 -0.043,5.225 -0.109,4.275 -0.047,3.756 0.047,2.978 0.09,2.306 0.26,1.644" /></g><g
             transform="translate(95.2485,77.8965)"
             id="g512"><path
               inkscape:connector-curvature="0"
               id="path514"
               style="fill:#2da641;fill-opacity:1;fill-rule:nonzero;stroke:none"
               d="m 0,0 c 0.137,2.014 -3.146,1.078 -3.732,-0.969 0.722,-1.432 1.687,-1.815 2.9,-1.057 C -0.754,-1.981 -0.084,-1.248 0,0" /></g><g
             transform="translate(95.1157,78.2637)"
             id="g516"><path
               inkscape:connector-curvature="0"
               id="path518"
               style="fill:#231f20;fill-opacity:1;fill-rule:nonzero;stroke:none"
               d="m 0,0 c -0.805,-0.032 -1.582,0.153 -3.508,-1.292 1.551,0.954 2.24,1.244 3.447,1.146" /></g><g
             transform="translate(95.7466,64.499)"
             id="g520"><path
               inkscape:connector-curvature="0"
               id="path522"
               style="fill:#2da641;fill-opacity:1;fill-rule:nonzero;stroke:none"
               d="M 0,0 C 0.27,-1.863 0.904,-5.796 5.795,-3.406 1.33,-4.164 -0.477,-1.315 3.254,-0.073" /></g><g
             transform="translate(92.4673,71.1826)"
             id="g524"><path
               inkscape:connector-curvature="0"
               id="path526"
               style="fill:#2da641;fill-opacity:1;fill-rule:nonzero;stroke:none"
               d="m 0,0 c 0.527,1.764 1.506,3.406 3.086,3.6 2,0.24 6.576,-4.968 5.656,-8.97 C 7.924,-7.343 3.551,-7.145 2.375,-6.441 1.199,-5.736 -0.904,-3.025 0,0" /></g><g
             transform="translate(92.6606,71.1289)"
             id="g528"><path
               inkscape:connector-curvature="0"
               id="path530"
               style="fill:#231f20;fill-opacity:1;fill-rule:nonzero;stroke:none"
               d="m 0,0 c 0.807,-1.636 0.801,-3.369 6.135,-4.995 -3.77,1.66 -4.977,2.224 -6.112,5.306" /></g><g
             transform="translate(63.1973,28.2246)"
             id="g532"><path
               inkscape:connector-curvature="0"
               id="path534"
               style="fill:#2da641;fill-opacity:1;fill-rule:nonzero;stroke:none"
               d="M 0,0 C 0.801,1.37 1.539,2.999 1.369,3.851 1.062,5.387 0.541,5.559 0.103,6.695 -0.342,7.848 0.449,8.785 0.843,9.33 0.063,8.628 -0.529,7.193 -0.296,6.666 -0.013,6.028 0.763,5.155 0.84,4.063 0.906,3.115 0.329,2.965 0.104,2.53 -0.238,1.881 0.702,2.065 0.337,1.547" /></g><g
             transform="translate(63.6172,36.8965)"
             id="g536"><path
               inkscape:connector-curvature="0"
               id="path538"
               style="fill:#2da641;fill-opacity:1;fill-rule:nonzero;stroke:none"
               d="M 0,0 C 0.562,1.829 2.957,-0.214 2.75,-2.238 1.677,-3.234 0.751,-3.215 0.003,-2.096 -0.042,-2.03 -0.353,-1.13 0,0" /></g><g
             transform="translate(63.8477,37.1729)"
             id="g540"><path
               inkscape:connector-curvature="0"
               id="path542"
               style="fill:#231f20;fill-opacity:1;fill-rule:nonzero;stroke:none"
               d="M 0,0 C 0.651,-0.327 1.359,-0.453 2.46,-2.438 1.504,-1.025 1.03,-0.513 0,-0.154" /></g><g
             transform="translate(63.3203,30.3906)"
             id="g544"><path
               inkscape:connector-curvature="0"
               id="path546"
               style="fill:#2da641;fill-opacity:1;fill-rule:nonzero;stroke:none"
               d="M 0,0 C -0.383,1.958 -1.289,5.665 -2.248,6.073 -3.198,6.469 -4.135,4.919 -5.175,5.989 -6.223,7.059 -6.73,8.271 -6.811,9.113 -6.954,7.78 -6.183,6.196 -5.683,5.699 c 0.495,-0.505 1.33,-1.213 2.601,-0.506 0.982,0.549 1.44,-0.461 1.59,-1.055 0.221,-0.893 0.45,-1.648 0.544,-2.445" /></g><g
             transform="translate(56.6475,38.5742)"
             id="g548"><path
               inkscape:connector-curvature="0"
               id="path550"
               style="fill:#2da641;fill-opacity:1;fill-rule:nonzero;stroke:none"
               d="M 0,0 C -1.191,1.933 3.758,2.36 5.578,0.576 5.305,-1.133 4.183,-1.909 2.145,-1.658 2.021,-1.646 0.737,-1.198 0,0" /></g><g
             transform="translate(56.6426,38.9922)"
             id="g552"><path
               inkscape:connector-curvature="0"
               id="path554"
               style="fill:#231f20;fill-opacity:1;fill-rule:nonzero;stroke:none"
               d="M 0,0 C 1.114,0.301 2.089,0.803 5.435,0.166 2.843,0.471 1.758,0.475 0.157,-0.12" /></g><g
             transform="translate(63.5361,26.7256)"
             id="g556"><path
               inkscape:connector-curvature="0"
               id="path558"
               style="fill:#2da641;fill-opacity:1;fill-rule:nonzero;stroke:none"
               d="m 0,0 c -0.262,-2.146 0.255,-9.279 -7.126,-8.748 -0.782,0.056 -2.921,-0.683 -2.622,0.442 0.092,0.709 1.828,-0.193 2.751,-0.089 1.057,0.123 2.02,0.398 2.565,0.728 2.492,1.527 3.943,5.381 0.644,5.363" /></g><g
             transform="translate(62.9453,31.8975)"
             id="g560"><path
               inkscape:connector-curvature="0"
               id="path562"
               style="fill:#2da641;fill-opacity:1;fill-rule:nonzero;stroke:none"
               d="m 0,0 c -1.198,1.275 -2.805,2.301 -4.474,1.932 -2.11,-0.466 -4.778,-6.261 -2.343,-9.244 1.568,-1.343 5.914,0.271 6.839,1.24 C 0.942,-5.104 2.054,-2.18 0,0" /></g><g
             transform="translate(62.7686,31.79)"
             id="g564"><path
               inkscape:connector-curvature="0"
               id="path566"
               style="fill:#231f20;fill-opacity:1;fill-rule:nonzero;stroke:none"
               d="m 0,0 c -0.197,-1.607 0.459,-3.029 -4.323,-6.138 3.187,2.615 4.193,3.478 4.184,6.387" /></g></g></g></g></g></svg>